<?xml version="1.0" encoding="UTF-8" standalone="no"?>
<!-- Created with Inkscape (http://www.inkscape.org/) -->

<svg
   width="129.07716mm"
   height="86.067116mm"
   viewBox="0 0 129.07716 86.067116"
   version="1.1"
   id="svg1"
   xml:space="preserve"
   xmlns:inkscape="http://www.inkscape.org/namespaces/inkscape"
   xmlns:sodipodi="http://sodipodi.sourceforge.net/DTD/sodipodi-0.dtd"
   xmlns="http://www.w3.org/2000/svg"
   xmlns:svg="http://www.w3.org/2000/svg"><sodipodi:namedview
     id="namedview1"
     pagecolor="#ffffff"
     bordercolor="#000000"
     borderopacity="0.25"
     inkscape:showpageshadow="2"
     inkscape:pageopacity="0.0"
     inkscape:pagecheckerboard="0"
     inkscape:deskcolor="#d1d1d1"
     inkscape:document-units="mm"><inkscape:page
       x="0"
       y="0"
       width="129.07716"
       height="86.067116"
       id="page2"
       margin="0"
       bleed="0" /></sodipodi:namedview><defs
     id="defs1" /><g
     inkscape:label="Layer 1"
     inkscape:groupmode="layer"
     id="layer1"
     transform="translate(-37.851477,-114.84613)"><path
       style="fill:#000000"
       d="m 57.813474,200.87374 c -4.08847,-0.30273 -8.193297,-1.87805 -11.491109,-4.40998 -0.888241,-0.68195 -1.113943,-0.88625 -2.279296,-2.06311 -2.380135,-2.40365 -4.136917,-5.33509 -5.162108,-8.61371 -0.564162,-1.80423 -0.860759,-3.53442 -0.967002,-5.64099 -0.08337,-1.65308 -0.08328,-42.82581 9.3e-5,-44.47906 0.07584,-1.50371 0.246161,-2.81225 0.523022,-4.0182 0.245826,-1.07076 0.704342,-2.55231 0.7899,-2.55231 0.03255,0 0.0428,-0.0265 0.02277,-0.0589 -0.05919,-0.0958 0.627678,-1.70149 1.143472,-2.67316 3.004173,-5.65936 8.258595,-9.65067 14.501908,-11.01579 0.546415,-0.11948 1.482462,-0.28139 2.080103,-0.35981 l 1.086621,-0.14258 h 44.334122 44.33413 l 1.11766,0.14485 c 5.02916,0.65176 9.25589,2.71233 12.76004,6.22065 3.80746,3.81201 5.96137,8.6391 6.27509,14.06297 0.0711,1.22884 0.0546,45.70357 -0.017,45.97959 -0.0222,0.0854 -0.087,0.53244 -0.14407,0.99348 -0.59966,4.84349 -3.15022,9.71475 -6.8281,13.04085 -3.31246,2.99563 -7.17227,4.79713 -11.7355,5.47732 l -0.93139,0.13883 -44.39622,0.008 c -24.417918,0.004 -44.675633,-0.0132 -45.017143,-0.0385 z m 90.313706,-0.35766 c 4.90225,-0.74914 8.93942,-2.74779 12.26084,-6.06989 3.41896,-3.41966 5.41706,-7.48584 6.1316,-12.47795 l 0.14221,-0.99348 v -23.16055 -23.16054 l -0.14172,-0.97365 c -0.38466,-2.64293 -1.09027,-4.87496 -2.244,-7.09839 -2.29585,-4.42452 -6.06727,-7.8992 -10.67991,-9.83963 -1.64821,-0.69337 -3.34883,-1.16075 -5.37588,-1.47746 l -1.05557,-0.16492 -43.52693,-0.0208 c -29.350666,-0.014 -43.961711,6e-5 -44.86191,0.0433 -2.186132,0.10508 -3.895318,0.39618 -5.712252,0.9729 -3.320902,1.05409 -6.18677,2.79917 -8.660081,5.27329 -3.338086,3.33917 -5.382846,7.46747 -6.07283,12.26084 l -0.138539,0.96244 v 23.31577 23.31578 l 0.136578,0.93329 c 0.661876,4.52291 2.520705,8.46367 5.523993,11.711 3.616162,3.91001 8.772835,6.38974 14.053834,6.75819 0.358585,0.025 20.602329,0.0416 44.986097,0.0368 l 44.33413,-0.009 z M 101.3404,179.44899 c -9.685655,-0.48368 -17.898393,-7.41923 -19.994034,-16.88469 -0.388486,-1.75469 -0.486877,-2.71585 -0.483078,-4.71904 0.003,-1.56386 0.02186,-1.89599 0.162472,-2.85626 0.290666,-1.98501 0.767591,-3.73308 1.482107,-5.43236 2.993827,-7.12 9.533086,-12.09112 17.187075,-13.06555 11.011048,-1.40181 21.328198,5.84086 23.755668,16.67654 0.40607,1.81258 0.4876,2.60841 0.48559,4.73972 -0.002,2.13139 -0.0877,2.9681 -0.48467,4.7306 -1.67783,7.44988 -7.15994,13.44733 -14.4427,15.80033 -1.61891,0.52306 -3.67305,0.90961 -5.2317,0.98451 -0.38398,0.0185 -0.87976,0.0424 -1.10174,0.0531 -0.22198,0.0108 -0.82273,-0.001 -1.33499,-0.0269 z m 3.92138,-0.42452 c 8.82918,-1.20332 15.96363,-7.72541 17.9377,-16.39808 0.40432,-1.77632 0.48788,-2.58294 0.48883,-4.71904 9.4e-4,-2.09681 -0.0793,-2.90549 -0.45895,-4.6278 -1.36278,-6.1817 -5.49867,-11.52704 -11.11589,-14.36651 -2.28737,-1.15625 -4.47078,-1.83251 -7.04752,-2.18278 -1.43635,-0.19526 -3.85643,-0.19544 -5.308915,-4.1e-4 -7.045279,0.94601 -12.99353,5.083 -16.254237,11.30478 -1.128076,2.15249 -1.85052,4.42763 -2.22799,7.01646 -0.138865,0.95238 -0.158754,1.29757 -0.161,2.79417 -0.0029,1.93844 0.100283,2.93767 0.480928,4.65695 2.393456,10.81061 12.713417,18.01511 23.667044,16.52226 z m -5.05457,-12.51703 c -0.0599,-0.068 -0.0776,-0.80423 -0.0776,-3.22646 v -3.13829 h -3.135676 c -2.049057,0 -3.135677,-0.0215 -3.135677,-0.0621 0,-0.0342 -0.04191,-0.0621 -0.09314,-0.0621 -0.08095,0 -0.09314,-0.27443 -0.09314,-2.09735 0,-2.02448 0.0043,-2.10106 0.124895,-2.20429 0.11457,-0.0981 0.3815,-0.10693 3.228816,-0.10693 h 3.103922 V 152.506 c 0,-2.84732 0.009,-3.11425 0.10694,-3.22882 0.10318,-0.12051 0.17985,-0.1249 2.18192,-0.1249 1.90335,0 2.0818,0.009 2.15747,0.10867 0.066,0.0869 0.0829,0.73274 0.0845,3.22881 l 0.002,3.12016 h 3.14011 c 2.63864,0 3.15428,0.0142 3.22882,0.0887 0.13125,0.13125 0.13179,4.22356 5.8e-4,4.35478 -0.0733,0.0733 -0.61279,0.0908 -3.2133,0.10422 l -3.12516,0.0161 -0.0161,3.12517 c -0.0134,2.6005 -0.0309,3.13996 -0.10423,3.21329 -0.13071,0.13071 -4.25054,0.12623 -4.36586,-0.005 z m 4.20677,-3.2956 c 0,-2.63864 0.0142,-3.15428 0.0887,-3.22882 0.0745,-0.0745 0.59018,-0.0887 3.22882,-0.0887 h 3.14011 v -2.01801 -2.01801 h -3.14011 c -2.63864,0 -3.15428,-0.0142 -3.22882,-0.0887 -0.0745,-0.0745 -0.0887,-0.58603 -0.0887,-3.19777 v -3.10906 h -2.01801 -2.01801 v 3.12326 c 0,2.34641 -0.0185,3.14179 -0.0745,3.19777 -0.056,0.056 -0.851359,0.0745 -3.19777,0.0745 h -3.123258 v 2.01801 2.01801 h 3.109066 c 2.611733,0 3.123252,0.0142 3.197772,0.0887 0.0745,0.0745 0.0887,0.59018 0.0887,3.22882 v 3.14011 h 2.01801 2.01801 z"
       id="path2" /><path
       style="fill:#000000"
       d="m 57.813474,200.87374 c -4.08847,-0.30273 -8.193297,-1.87805 -11.491109,-4.40998 -0.888241,-0.68195 -1.113943,-0.88625 -2.279296,-2.06311 -2.380135,-2.40365 -4.136917,-5.33509 -5.162108,-8.61371 -0.564162,-1.80423 -0.860759,-3.53442 -0.967002,-5.64099 -0.08337,-1.65308 -0.08328,-42.82581 9.3e-5,-44.47906 0.07584,-1.50371 0.246161,-2.81225 0.523022,-4.0182 0.245826,-1.07076 0.704342,-2.55231 0.7899,-2.55231 0.03255,0 0.0428,-0.0265 0.02277,-0.0589 -0.05919,-0.0958 0.627678,-1.70149 1.143472,-2.67316 3.004173,-5.65936 8.258595,-9.65067 14.501908,-11.01579 0.546415,-0.11948 1.482462,-0.28139 2.080103,-0.35981 l 1.086621,-0.14258 h 44.334122 44.33413 l 1.11766,0.14485 c 5.02916,0.65176 9.25589,2.71233 12.76004,6.22065 3.80746,3.81201 5.96137,8.6391 6.27509,14.06297 0.0711,1.22884 0.0546,45.70357 -0.017,45.97959 -0.0222,0.0854 -0.087,0.53244 -0.14407,0.99348 -0.59966,4.84349 -3.15022,9.71475 -6.8281,13.04085 -3.31246,2.99563 -7.17227,4.79713 -11.7355,5.47732 l -0.93139,0.13883 -44.39622,0.008 c -24.417918,0.004 -44.675633,-0.0132 -45.017143,-0.0385 z m 90.313706,-0.35766 c 4.90225,-0.74914 8.93942,-2.74779 12.26084,-6.06989 3.41896,-3.41966 5.41706,-7.48584 6.1316,-12.47795 l 0.14221,-0.99348 v -23.16055 -23.16054 l -0.14172,-0.97365 c -0.38466,-2.64293 -1.09027,-4.87496 -2.244,-7.09839 -2.29585,-4.42452 -6.06727,-7.8992 -10.67991,-9.83963 -1.64821,-0.69337 -3.34883,-1.16075 -5.37588,-1.47746 l -1.05557,-0.16492 -43.52693,-0.0208 c -29.350666,-0.014 -43.961711,6e-5 -44.86191,0.0433 -2.186132,0.10508 -3.895318,0.39618 -5.712252,0.9729 -3.320902,1.05409 -6.18677,2.79917 -8.660081,5.27329 -3.338086,3.33917 -5.382846,7.46747 -6.07283,12.26084 l -0.138539,0.96244 v 23.31577 23.31578 l 0.136578,0.93329 c 0.661876,4.52291 2.520705,8.46367 5.523993,11.711 3.616162,3.91001 8.772835,6.38974 14.053834,6.75819 0.358585,0.025 20.602329,0.0416 44.986097,0.0368 l 44.33413,-0.009 z M 101.3404,179.44899 c -9.685655,-0.48368 -17.898393,-7.41923 -19.994034,-16.88469 -0.388486,-1.75469 -0.486877,-2.71585 -0.483078,-4.71904 0.003,-1.56386 0.02186,-1.89599 0.162472,-2.85626 0.290666,-1.98501 0.767591,-3.73308 1.482107,-5.43236 2.993827,-7.12 9.533086,-12.09112 17.187075,-13.06555 11.011048,-1.40181 21.328198,5.84086 23.755668,16.67654 0.40607,1.81258 0.4876,2.60841 0.48559,4.73972 -0.002,2.13139 -0.0877,2.9681 -0.48467,4.7306 -1.67783,7.44988 -7.15994,13.44733 -14.4427,15.80033 -1.61891,0.52306 -3.67305,0.90961 -5.2317,0.98451 -0.38398,0.0185 -0.87976,0.0424 -1.10174,0.0531 -0.22198,0.0108 -0.82273,-0.001 -1.33499,-0.0269 z m 3.92138,-0.42452 c 8.82918,-1.20332 15.96363,-7.72541 17.9377,-16.39808 0.40432,-1.77632 0.48788,-2.58294 0.48883,-4.71904 9.4e-4,-2.09681 -0.0793,-2.90549 -0.45895,-4.6278 -1.36278,-6.1817 -5.49867,-11.52704 -11.11589,-14.36651 -2.28737,-1.15625 -4.47078,-1.83251 -7.04752,-2.18278 -1.43635,-0.19526 -3.85643,-0.19544 -5.308915,-4.1e-4 -7.045279,0.94601 -12.99353,5.083 -16.254237,11.30478 -1.128076,2.15249 -1.85052,4.42763 -2.22799,7.01646 -0.138865,0.95238 -0.158754,1.29757 -0.161,2.79417 -0.0029,1.93844 0.100283,2.93767 0.480928,4.65695 2.393456,10.81061 12.713417,18.01511 23.667044,16.52226 z m -5.05457,-12.51703 c -0.0599,-0.068 -0.0776,-0.80423 -0.0776,-3.22646 v -3.13829 h -3.135676 c -2.049057,0 -3.135677,-0.0215 -3.135677,-0.0621 0,-0.0342 -0.04191,-0.0621 -0.09314,-0.0621 -0.08095,0 -0.09314,-0.27443 -0.09314,-2.09735 0,-2.02448 0.0043,-2.10106 0.124895,-2.20429 0.11457,-0.0981 0.3815,-0.10693 3.228816,-0.10693 h 3.103922 V 152.506 c 0,-2.84732 0.009,-3.11425 0.10694,-3.22882 0.10318,-0.12051 0.17985,-0.1249 2.18192,-0.1249 1.90335,0 2.0818,0.009 2.15747,0.10867 0.066,0.0869 0.0829,0.73274 0.0845,3.22881 l 0.002,3.12016 h 3.14011 c 2.63864,0 3.15428,0.0142 3.22882,0.0887 0.13125,0.13125 0.13179,4.22356 5.8e-4,4.35478 -0.0733,0.0733 -0.61279,0.0908 -3.2133,0.10422 l -3.12516,0.0161 -0.0161,3.12517 c -0.0134,2.6005 -0.0309,3.13996 -0.10423,3.21329 -0.13071,0.13071 -4.25054,0.12623 -4.36586,-0.005 z m 4.20677,-3.2956 c 0,-2.63864 0.0142,-3.15428 0.0887,-3.22882 0.0745,-0.0745 0.59018,-0.0887 3.22882,-0.0887 h 3.14011 v -2.01801 -2.01801 h -3.14011 c -2.63864,0 -3.15428,-0.0142 -3.22882,-0.0887 -0.0745,-0.0745 -0.0887,-0.58603 -0.0887,-3.19777 v -3.10906 h -2.01801 -2.01801 v 3.12326 c 0,2.34641 -0.0185,3.14179 -0.0745,3.19777 -0.056,0.056 -0.851359,0.0745 -3.19777,0.0745 h -3.123258 v 2.01801 2.01801 h 3.109066 c 2.611733,0 3.123252,0.0142 3.197772,0.0887 0.0745,0.0745 0.0887,0.59018 0.0887,3.22882 v 3.14011 h 2.01801 2.01801 z"
       id="path1" /></g></svg>
