<?xml version="1.0" encoding="UTF-8" standalone="no"?>
<!-- Created with Inkscape (http://www.inkscape.org/) -->

<svg
   width="129.077mm"
   height="86.066994mm"
   viewBox="0 0 129.077 86.066994"
   version="1.1"
   id="svg1"
   xml:space="preserve"
   xmlns:inkscape="http://www.inkscape.org/namespaces/inkscape"
   xmlns:sodipodi="http://sodipodi.sourceforge.net/DTD/sodipodi-0.dtd"
   xmlns="http://www.w3.org/2000/svg"
   xmlns:svg="http://www.w3.org/2000/svg"><sodipodi:namedview
     id="namedview1"
     pagecolor="#ffffff"
     bordercolor="#000000"
     borderopacity="0.25"
     inkscape:showpageshadow="2"
     inkscape:pageopacity="0.0"
     inkscape:pagecheckerboard="0"
     inkscape:deskcolor="#d1d1d1"
     inkscape:document-units="mm"
     inkscape:zoom="0.1712255"
     inkscape:cx="884.79811"
     inkscape:cy="689.14968"
     inkscape:window-width="1924"
     inkscape:window-height="1203"
     inkscape:window-x="0"
     inkscape:window-y="0"
     inkscape:window-maximized="0"
     inkscape:current-layer="layer1"><inkscape:page
       x="1.33126e-13"
       y="0"
       width="129.077"
       height="86.066994"
       id="page2"
       margin="0"
       bleed="0" /></sodipodi:namedview><defs
     id="defs1" /><g
     inkscape:label="Layer 1"
     inkscape:groupmode="layer"
     id="layer1"
     transform="translate(-45.482562,-115.02639)"><path
       style="fill:#000000;stroke-width:0.24799"
       d="m 110.71079,201.0844 -43.879615,0.009 -0.919632,-0.0477 -0.919633,-0.0477 -0.788256,-0.11048 -0.788257,-0.11049 -1.018164,-0.2215 -1.018165,-0.22149 -0.853945,-0.27203 -0.853944,-0.27203 -0.919633,-0.38111 -0.919632,-0.38112 -0.856191,-0.45316 -0.856191,-0.45316 -0.753166,-0.48172 -0.753166,-0.48171 -0.853945,-0.65769 -0.853944,-0.65768 -1.119304,-1.11684 -1.119303,-1.11683 -0.636646,-0.8283 -0.636645,-0.82831 -0.565838,-0.87574 -0.565838,-0.87574 -0.445703,-0.88479 -0.445703,-0.88479 -0.31281,-0.75371 -0.31281,-0.75371 -0.311838,-0.9831 -0.311839,-0.9831 -0.198643,-0.95034 -0.198642,-0.95033 -0.120593,-0.85202 -0.120594,-0.85202 v -23.33227 -23.33227 l 0.14493,-0.9831 0.144929,-0.9831 0.199373,-0.87297 0.199373,-0.87298 0.271105,-0.85796 0.271104,-0.85796 0.356773,-0.8579 0.356773,-0.8579 0.400712,-0.78648 0.400711,-0.78648 0.558845,-0.88479 0.558845,-0.88479 0.641261,-0.81925 0.641261,-0.81925 0.5547,-0.59767 0.5547,-0.59767 0.747897,-0.68404 0.747897,-0.68404 0.698147,-0.53514 0.698146,-0.53514 0.878367,-0.5492 0.878366,-0.54919 0.8211,-0.42418 0.821101,-0.42419 0.826861,-0.33694 0.826861,-0.33694 0.848184,-0.26971 0.848184,-0.26971 0.985321,-0.2194 0.98532,-0.2194 1.116697,-0.15228 1.116696,-0.15227 h 44.437958 44.43796 l 1.11669,0.15227 1.1167,0.15228 0.98532,0.2194 0.98532,0.2194 0.85395,0.26998 0.85394,0.26997 0.88679,0.36588 0.88679,0.36588 0.8211,0.42935 0.8211,0.42936 0.8211,0.52235 0.8211,0.52236 0.68972,0.5276 0.68973,0.52761 0.74422,0.68066 0.74423,0.68066 0.49533,0.53551 0.49534,0.53551 0.27724,0.3277 0.27723,0.3277 0.4907,0.6554 0.49069,0.6554 0.49807,0.78648 0.49808,0.78648 0.42874,0.85202 0.42875,0.85203 0.32612,0.79311 0.32611,0.79311 0.27087,0.85721 0.27086,0.8572 0.19937,0.87298 0.19938,0.87297 0.14493,0.9831 0.14493,0.9831 v 23.36504 23.36504 l -0.14493,0.9831 -0.14493,0.9831 -0.19938,0.87298 -0.19937,0.87297 -0.2711,0.85797 -0.27111,0.85796 -0.34398,0.82513 -0.34398,0.82512 -0.41221,0.81925 -0.41221,0.81925 -0.49722,0.78648 -0.49723,0.78648 -0.51247,0.68818 -0.51247,0.68817 -0.76926,0.85202 -0.76926,0.85202 -0.82357,0.73514 -0.82358,0.73515 -0.60067,0.45768 -0.60067,0.45767 -0.74593,0.47452 -0.74594,0.47452 -0.85394,0.4522 -0.85395,0.45219 -0.91963,0.3814 -0.91963,0.38139 -0.95248,0.29855 -0.95247,0.29854 -0.91963,0.19704 -0.91964,0.19705 -1.01816,0.14709 -1.01817,0.14709 z m -0.16422,-0.19466 44.1752,-0.007 0.98532,-0.15116 0.98532,-0.15116 0.85395,-0.18892 0.85394,-0.18891 0.88679,-0.27107 0.88679,-0.27107 0.8211,-0.3328 0.8211,-0.3328 0.93319,-0.48023 0.93319,-0.48022 0.8116,-0.51634 0.8116,-0.51633 0.75135,-0.57687 0.75136,-0.57686 0.68111,-0.62808 0.68112,-0.62808 0.63901,-0.69942 0.63901,-0.69942 0.588,-0.77523 0.588,-0.77523 0.49635,-0.78648 0.49635,-0.78648 0.39488,-0.75371 0.39488,-0.75372 0.36829,-0.88478 0.36829,-0.8848 0.26708,-0.83593 0.26707,-0.83594 0.22338,-0.99919 0.22339,-0.99918 0.1518,-1.04864 0.1518,-1.04864 v -22.93903 -22.93903 l -0.1509,-1.07905 -0.1509,-1.07904 -0.0297,-0.0297 -0.0297,-0.0297 v 0.12825 0.12825 l 0.11495,0.75108 0.11495,0.75108 v 23.33227 23.33227 l -0.11643,0.81925 -0.11643,0.81925 -0.20201,0.95033 -0.20201,0.95033 -0.29674,0.95033 -0.29675,0.95033 -0.32592,0.78109 -0.32591,0.78108 -0.41996,0.83619 -0.41996,0.83619 -0.47139,0.74217 -0.47138,0.74217 -0.64197,0.85202 -0.64197,0.85202 -0.62095,0.67794 -0.62096,0.67793 -0.64885,0.59084 -0.64884,0.59084 -0.71758,0.55916 -0.71757,0.55915 -0.76041,0.4937 -0.7604,0.4937 -0.88679,0.46941 -0.88679,0.4694 -0.88679,0.36748 -0.88679,0.36749 -0.85394,0.27113 -0.85395,0.27113 -0.98532,0.21998 -0.98532,0.21999 -1.1167,0.15169 -1.11669,0.15169 H 110.02106 65.64879 l -1.116696,-0.15169 -1.116697,-0.15169 -0.985321,-0.21999 -0.98532,-0.21998 -0.848108,-0.26969 -0.848108,-0.26969 -0.925469,-0.38699 -0.925469,-0.38699 -0.853945,-0.45039 -0.853944,-0.4504 -0.760407,-0.49464 -0.760407,-0.49465 -0.717574,-0.55904 -0.717574,-0.55903 -0.624036,-0.56812 -0.624037,-0.56811 -0.613103,-0.66801 -0.613103,-0.66801 -0.609754,-0.78648 -0.609752,-0.78648 -0.482873,-0.75371 -0.482873,-0.75371 -0.443778,-0.85202 -0.443779,-0.85202 -0.0018,0.0783 -0.0018,0.0783 0.370769,0.70818 0.370769,0.70818 0.496347,0.78648 0.496347,0.78648 0.725523,0.95033 0.725523,0.95033 1.051371,1.04864 1.051371,1.04864 0.881958,0.68018 0.881957,0.68017 0.793021,0.50444 0.793022,0.50445 0.886788,0.46431 0.886789,0.46432 0.886788,0.35927 0.886789,0.35928 0.853944,0.26625 0.853945,0.26625 0.886788,0.19548 0.886789,0.19548 0.755412,0.10924 0.755413,0.10924 0.755412,0.049 0.755413,0.049 z m -0.68973,-0.18193 42.69722,0.008 1.19306,-0.0606 1.19306,-0.0606 0.77758,-0.10379 0.77758,-0.10379 0.91964,-0.19943 0.91963,-0.19943 0.95248,-0.29669 0.95247,-0.29669 0.78826,-0.32736 0.78826,-0.32736 0.8211,-0.41612 0.8211,-0.41613 0.8351,-0.52631 0.83511,-0.5263 0.87278,-0.67212 0.87279,-0.67213 1.08547,-1.08233 1.08547,-1.08232 0.63029,-0.81926 0.6303,-0.81925 0.49787,-0.7656 0.49788,-0.7656 0.46008,-0.8729 0.46008,-0.8729 0.33944,-0.81925 0.33944,-0.81925 0.2878,-0.89476 0.2878,-0.89475 0.19979,-0.87483 0.1998,-0.87483 0.14493,-0.9831 0.14493,-0.9831 v -23.16842 -23.16842 l -0.11995,-0.88479 -0.11995,-0.88479 -0.2205,-1.01587 -0.2205,-1.01587 -0.26825,-0.84223 -0.26825,-0.84222 -0.36635,-0.89459 -0.36635,-0.89459 -0.4318,-0.81925 -0.4318,-0.81925 -0.51336,-0.80517 -0.51337,-0.80518 -0.67274,-0.8661 -0.67273,-0.86609 -1.05313,-1.04865 -1.05312,-1.04864 -0.83315,-0.63911 -0.83316,-0.63911 -0.80866,-0.51494 -0.80866,-0.51493 -0.8211,-0.43005 -0.8211,-0.43005 -0.8211,-0.34157 -0.8211,-0.34157 -0.89677,-0.28645 -0.89677,-0.28645 -0.87681,-0.19929 -0.8768,-0.1993 -0.91963,-0.14191 -0.91964,-0.14191 -24.60016,-0.037 -24.60017,-0.037 -20.034858,0.003 -20.034852,0.003 -1.083852,0.15063 -1.083853,0.15062 -0.98532,0.21989 -0.985321,0.21989 -0.838487,0.26664 -0.838488,0.26663 -0.738025,0.30345 -0.738026,0.30344 -0.887343,0.44348 -0.887342,0.44347 -0.853391,0.54328 -0.85339,0.54329 -0.853945,0.6578 -0.853944,0.65781 -1.086314,1.08392 -1.086314,1.08392 -0.629453,0.81925 -0.629452,0.81926 -0.497874,0.7656 -0.497875,0.7656 -0.46008,0.8729 -0.46008,0.8729 -0.339441,0.81925 -0.33944,0.81925 -0.2878,0.89475 -0.2878,0.89476 -0.199606,0.87483 -0.199605,0.87483 -0.14512,0.9831 -0.145119,0.9831 v 23.20119 23.20119 l 0.119403,0.85202 0.119403,0.85202 0.222949,1.03125 0.222949,1.03125 0.289469,0.90218 0.289469,0.90218 0.342498,0.81925 0.342499,0.81926 0.462159,0.87757 0.462159,0.87758 0.494784,0.76092 0.494784,0.76093 0.62925,0.81925 0.629249,0.81925 1.119925,1.11418 1.119925,1.11418 0.917726,0.69246 0.917726,0.69246 0.755413,0.47427 0.755412,0.47427 0.821101,0.41598 0.8211,0.41597 0.788256,0.32736 0.788257,0.32736 0.952476,0.29669 0.952477,0.29668 0.919633,0.19944 0.919632,0.19943 0.788257,0.10675 0.788256,0.10675 1.018165,0.0494 1.018164,0.0494 z m 0.45982,-21.12403 -1.77358,0.019 -0.22991,-0.0258 -0.2299,-0.0258 -0.85395,-0.10417 -0.85394,-0.10418 -0.91964,-0.19558 -0.91963,-0.19559 -0.95248,-0.29674 -0.95247,-0.29674 -0.92254,-0.38128 -0.92255,-0.38128 -0.916721,-0.48663 -0.916721,-0.48663 -0.755413,-0.49331 -0.755413,-0.4933 -0.654725,-0.50376 -0.654727,-0.50375 -0.691878,-0.63006 -0.691881,-0.63006 -0.611865,-0.66108 -0.611866,-0.66109 -0.610858,-0.78648 -0.610858,-0.78649 -0.44695,-0.68816 -0.44695,-0.68818 -0.487393,-0.91465 -0.487391,-0.91466 -0.382137,-0.92047 -0.382137,-0.92046 -0.297412,-0.95033 -0.29741,-0.95033 -0.195696,-0.91757 -0.195699,-0.91755 -0.120108,-0.85203 -0.12011,-0.85202 -4.97e-4,-1.93343 -4.96e-4,-1.93343 0.120741,-0.85202 0.120741,-0.85202 0.220503,-1.01587 0.220504,-1.01588 0.273377,-0.85202 0.273375,-0.85202 0.361935,-0.88479 0.361932,-0.88479 0.430652,-0.81925 0.430648,-0.81925 0.515716,-0.8094 0.515714,-0.80939 0.587689,-0.76357 0.587689,-0.76357 0.61303,-0.67378 0.613031,-0.67379 0.653423,-0.59498 0.653426,-0.595 0.721068,-0.56186 0.721067,-0.56187 0.822602,-0.5334 0.8226,-0.5334 0.886789,-0.46478 0.88679,-0.46478 0.89661,-0.36517 0.8966,-0.36518 0.84413,-0.26801 0.84413,-0.26801 0.85394,-0.19493 0.85395,-0.19493 0.91963,-0.1306 0.91963,-0.1306 1.06743,-0.0515 1.06743,-0.0515 1.06743,0.0515 1.06743,0.0515 0.91963,0.1306 0.91964,0.1306 0.8768,0.19956 0.87681,0.19956 0.89677,0.28645 0.89677,0.28645 0.8211,0.34157 0.8211,0.34157 0.8211,0.42818 0.8211,0.42818 0.78826,0.49755 0.78826,0.49755 0.78825,0.60279 0.78826,0.60278 0.65688,0.59669 0.65688,0.59669 0.64503,0.70415 0.64503,0.70415 0.52461,0.67403 0.5246,0.67402 0.54287,0.8334 0.54286,0.8334 0.46583,0.88479 0.46582,0.88479 0.366,0.89459 0.366,0.89459 0.26584,0.8353 0.26584,0.83531 0.19913,0.89171 0.19914,0.89171 0.13118,0.91756 0.13119,0.91756 0.0477,1.03617 0.0477,1.03616 -0.0474,1.0052 -0.0474,1.00519 -0.10619,0.80964 -0.1062,0.80963 -0.19792,0.91755 -0.19792,0.91757 -0.29793,0.95033 -0.29794,0.95033 -0.36221,0.88479 -0.36222,0.88479 -0.43065,0.81925 -0.43065,0.81925 -0.52046,0.81679 -0.52046,0.8168 -0.61215,0.78894 -0.61216,0.78894 -0.59129,0.64449 -0.59129,0.6445 -0.64595,0.58996 -0.64595,0.58996 -0.78826,0.60814 -0.78826,0.60815 -0.68972,0.44612 -0.68973,0.44611 -0.85394,0.45348 -0.85395,0.45347 -0.90554,0.38601 -0.90554,0.386 -1.03226,0.32421 -1.03225,0.32422 -0.78577,0.17233 -0.78577,0.17234 -0.92212,0.13465 -0.92212,0.13465 z m 0.0328,-0.13269 1.60936,-0.0188 0.9767,-0.14095 0.9767,-0.14095 0.85072,-0.1927 0.85072,-0.1927 0.85914,-0.27026 0.85914,-0.27025 0.7735,-0.31724 0.7735,-0.31723 0.90819,-0.45544 0.90819,-0.45544 0.88455,-0.56894 0.88454,-0.56894 0.85619,-0.66494 0.85619,-0.66494 1.01943,-1.01714 1.01943,-1.01713 0.66651,-0.85435 0.66651,-0.85435 0.58795,-0.91524 0.58795,-0.91523 0.43077,-0.85202 0.43077,-0.85202 0.33289,-0.81019 0.3329,-0.81019 0.2648,-0.84059 0.2648,-0.84059 0.22316,-1.00359 0.22317,-1.0036 0.11944,-0.88479 0.11943,-0.88479 v -1.80235 -1.80235 l -0.11943,-0.88479 -0.11944,-0.8848 -0.22317,-1.00359 -0.22316,-1.0036 -0.27151,-0.8643 -0.27151,-0.86429 -0.32611,-0.78073 -0.32612,-0.78073 -0.44863,-0.89054 -0.44863,-0.89055 -0.57023,-0.88255 -0.57022,-0.88255 -0.66644,-0.85426 -0.66645,-0.85426 -1.01943,-1.01714 -1.01943,-1.01713 -0.85619,-0.66494 -0.85619,-0.66494 -0.88454,-0.56893 -0.88455,-0.56892 -0.85394,-0.42923 -0.85395,-0.42923 -0.82698,-0.34322 -0.82699,-0.34323 -0.8599,-0.27049 -0.8599,-0.2705 -0.85365,-0.19336 -0.85364,-0.19336 -1.00662,-0.14809 -1.00662,-0.14809 h -1.87211 -1.87211 l -1.00662,0.14809 -1.00662,0.14809 -0.85266,0.19314 -0.85265,0.19314 -0.76825,0.23822 -0.76824,0.23823 -0.95248,0.38497 -0.95248,0.38498 -0.91963,0.47799 -0.919632,0.47799 -0.788257,0.51329 -0.788256,0.5133 -0.853946,0.66255 -0.853944,0.66255 -1.018815,1.01713 -1.018814,1.01714 -0.691712,0.88479 -0.691715,0.88479 -0.563368,0.88479 -0.563369,0.8848 -0.430018,0.85202 -0.430016,0.85202 -0.326072,0.78648 -0.326075,0.78648 -0.271397,0.86384 -0.271396,0.86384 -0.193799,0.85172 -0.193799,0.85172 -0.148967,1.00435 -0.148967,1.00436 v 1.86789 1.86789 l 0.148967,1.00435 0.148967,1.00435 0.193799,0.85173 0.193799,0.85172 0.270865,0.85721 0.270865,0.85721 0.317952,0.77175 0.317954,0.77176 0.456466,0.90614 0.456466,0.90615 0.570226,0.88255 0.570226,0.88255 0.666441,0.85427 0.66644,0.85426 1.019433,1.01713 1.019433,1.01714 0.856188,0.66494 0.856191,0.66494 0.884543,0.56892 0.884545,0.56893 0.853948,0.42923 0.85394,0.42922 0.82699,0.34323 0.82699,0.34322 0.8599,0.2705 0.8599,0.27049 0.87494,0.19892 0.87495,0.19893 0.95247,0.1264 0.95248,0.12641 0.32844,0.0271 0.32844,0.0271 z m 0.18305,-0.0715 -1.33259,0.0293 -0.72257,-0.0527 -0.72257,-0.0527 -0.78826,-0.11159 -0.78825,-0.1116 -0.85395,-0.19242 -0.85394,-0.19244 -0.85395,-0.26689 -0.85394,-0.26689 -0.88679,-0.35964 -0.88679,-0.35965 -0.88663,-0.46491 -0.88664,-0.46492 -0.72272,-0.45823 -0.722721,-0.45823 -0.788256,-0.60524 -0.788257,-0.60524 -0.672801,-0.61272 -0.672801,-0.61271 -0.598822,-0.6554 -0.598822,-0.6554 -0.60657,-0.78648 -0.60657,-0.78649 -0.469997,-0.73884 -0.469995,-0.73885 -0.455525,-0.86688 -0.455528,-0.86689 -0.329662,-0.80361 -0.32966,-0.80361 -0.272454,-0.83489 -0.272451,-0.83489 -0.218684,-0.95033 -0.218686,-0.95033 -0.146422,-1.04865 -0.146422,-1.04864 v -1.73681 -1.73681 l 0.146422,-1.04864 0.146422,-1.04864 0.219687,-0.95034 0.219686,-0.95033 0.265433,-0.83004 0.265435,-0.83004 0.336438,-0.80846 0.336438,-0.80846 0.444884,-0.85202 0.444885,-0.85202 0.480042,-0.75371 0.480044,-0.75372 0.552609,-0.72093 0.552606,-0.72095 0.657555,-0.7319 0.657552,-0.7319 0.733556,-0.65607 0.733552,-0.65607 0.72257,-0.55291 0.722569,-0.5529 0.736438,-0.46787 0.736437,-0.46787 0.872916,-0.45344 0.87292,-0.45343 0.8211,-0.34104 0.8211,-0.34104 0.91964,-0.29064 0.91963,-0.29064 0.8756,-0.19112 0.8756,-0.19112 0.99651,-0.14315 0.99651,-0.14316 h 1.80642 1.80642 l 1.01816,0.1456 1.01817,0.1456 0.86088,0.19053 0.86088,0.19053 0.84701,0.26826 0.84701,0.26827 0.8211,0.3299 0.8211,0.32991 0.83041,0.42095 0.83041,0.42094 0.83022,0.52117 0.83023,0.52117 0.76982,0.5861 0.76982,0.58609 0.7084,0.64469 0.7084,0.64468 0.6273,0.68817 0.62731,0.68817 0.57646,0.75371 0.57646,0.75371 0.46918,0.73478 0.46917,0.73478 0.45446,0.87095 0.45446,0.87096 0.34128,0.81925 0.34127,0.81925 0.25928,0.80827 0.25928,0.80826 0.22115,0.96132 0.22116,0.96132 0.14614,1.01587 0.14615,1.01587 0.001,1.76958 9.9e-4,1.76958 -0.14378,1.03378 -0.14378,1.03377 -0.2233,0.9652 -0.2233,0.9652 -0.26544,0.83004 -0.26543,0.83004 -0.33643,0.80846 -0.33643,0.80846 -0.45478,0.86689 -0.45477,0.86688 -0.47,0.73885 -0.46999,0.73884 -0.60657,0.78649 -0.60657,0.78648 -0.59883,0.6554 -0.59882,0.6554 -0.6728,0.6134 -0.6728,0.6134 -0.78825,0.60516 -0.78826,0.60516 -0.74052,0.46894 -0.74051,0.46894 -0.86884,0.45449 -0.86884,0.45451 -0.80543,0.32892 -0.80543,0.32891 -0.83677,0.27184 -0.83678,0.27184 -0.95247,0.21811 -0.95248,0.21811 -0.99933,0.13421 -0.99933,0.13421 z m -0.15021,-0.19389 1.57652,-0.0232 0.91963,-0.12897 0.91963,-0.12896 0.78826,-0.17378 0.78825,-0.17379 0.95248,-0.29679 0.95248,-0.29678 0.78326,-0.32593 0.78325,-0.32593 0.79326,-0.39618 0.79325,-0.39618 0.87046,-0.54586 0.87046,-0.54586 0.80459,-0.62186 0.80458,-0.62186 0.62765,-0.57733 0.62764,-0.57732 0.63062,-0.68817 0.63062,-0.68818 0.55509,-0.72094 0.55509,-0.72094 0.53651,-0.83953 0.53651,-0.83953 0.45022,-0.89728 0.45022,-0.89728 0.29766,-0.72577 0.29765,-0.72576 0.29638,-0.94551 0.29637,-0.94551 0.19839,-0.91756 0.19839,-0.91756 0.11772,-0.85202 0.11773,-0.85202 v -1.80235 -1.80235 l -0.1196,-0.85203 -0.11959,-0.85202 -0.2205,-1.01587 -0.22051,-1.01587 -0.27307,-0.85202 -0.27307,-0.85202 -0.29523,-0.72094 -0.29523,-0.72094 -0.45607,-0.9037 -0.45606,-0.9037 -0.5318,-0.83311 -0.53181,-0.83312 -0.6109,-0.78648 -0.6109,-0.78648 -0.61187,-0.66075 -0.61186,-0.66075 -0.68973,-0.62232 -0.68972,-0.62232 -0.68973,-0.52659 -0.68972,-0.52659 -0.8211,-0.52448 -0.8211,-0.52449 -0.91963,-0.46137 -0.91964,-0.46137 -0.72257,-0.29485 -0.72256,-0.29485 -0.95248,-0.29696 -0.95248,-0.29696 -0.91963,-0.19774 -0.91963,-0.19774 -0.85395,-0.11795 -0.85394,-0.11795 h -1.80642 -1.80642 l -0.85395,0.11795 -0.85394,0.11795 -0.91964,0.19774 -0.91963,0.19774 -0.95247,0.29696 -0.95248,0.29696 -0.72257,0.29485 -0.72257,0.29485 -0.90573,0.45503 -0.905742,0.45504 -0.834996,0.53061 -0.834996,0.5306 -0.788256,0.60923 -0.788257,0.60923 -0.62769,0.57802 -0.627691,0.57801 -0.576221,0.62263 -0.576225,0.62263 -0.610046,0.78648 -0.610048,0.78648 -0.531804,0.83312 -0.531804,0.83311 -0.455813,0.9037 -0.455813,0.9037 -0.296164,0.72576 -0.296163,0.72577 -0.297221,0.9455 -0.297222,0.94551 -0.195696,0.91756 -0.195698,0.91756 -0.119567,0.85202 -0.119567,0.85203 v 1.80235 1.80235 l 0.119567,0.85202 0.119567,0.85202 0.195698,0.91756 0.195696,0.91756 0.298202,0.95033 0.298202,0.95034 0.326663,0.78149 0.326661,0.7815 0.397076,0.79147 0.397075,0.79146 0.547077,0.86847 0.547077,0.86848 0.56833,0.73726 0.568329,0.73725 0.633579,0.68818 0.633582,0.68817 0.689723,0.63215 0.689726,0.63215 0.722567,0.553 0.722569,0.55299 0.788257,0.50445 0.788256,0.50444 0.886791,0.45015 0.88679,0.45014 0.78825,0.3278 0.78826,0.32779 0.95248,0.29446 0.95247,0.29447 0.91963,0.1979 0.91964,0.1979 0.85394,0.10335 0.85395,0.10335 0.29559,0.0267 0.2956,0.0267 z m -0.37301,-14.51545 -8.62625,-0.003 -0.0821,-0.0931 -0.0821,-0.0931 v -2.13207 -2.13207 l 0.11313,-0.13183 0.11313,-0.13182 h 8.57594 8.57593 l 0.11313,0.13182 0.11313,0.13183 v 2.13399 2.13398 l -0.0938,0.0936 -0.0938,0.0936 z m 0.0117,-0.12859 h 8.44748 l 0.0788,-0.0786 0.0788,-0.0787 v -2.03829 -2.0383 l -0.0788,-0.0787 -0.0788,-0.0786 h -8.44747 -8.44749 l -0.0788,0.0786 -0.0788,0.0787 v 2.0383 2.03829 l 0.0788,0.0787 0.0788,0.0786 z m 0,-0.13108 h -8.54129 l 0.0173,-2.0809 0.0174,-2.0809 h 8.5066 8.5066 l 0.0174,2.0809 0.0173,2.0809 z m 0,-0.13108 h 8.41002 l -0.0174,-1.94982 -0.0174,-1.94982 h -8.37522 -8.37523 l -0.0174,1.94982 -0.0174,1.94982 z m 0,-8.12697 h -8.57594 l -0.11313,-0.13183 -0.11313,-0.13183 v -2.13399 -2.13398 l 0.0938,-0.0936 0.0938,-0.0936 h 8.61452 8.61451 l 0.0938,0.0936 0.0938,0.0936 v 2.13398 2.13399 l -0.11313,0.13183 -0.11313,0.13183 z m 0,-0.19662 h 8.44748 l 0.0788,-0.0786 0.0788,-0.0786 v -2.03829 -2.0383 l -0.0788,-0.0786 -0.0788,-0.0787 h -8.44747 -8.44749 l -0.0788,0.0787 -0.0788,0.0786 v 2.0383 2.03829 l 0.0788,0.0786 0.0788,0.0786 z m 0.0657,-0.087 -8.44092,0.0113 -0.0821,-0.0332 -0.0821,-0.0332 v -2.05905 -2.05905 h 8.54037 8.54037 l -0.0174,2.08089 -0.0173,2.0809 z m -0.0657,-0.17519 h 8.40806 v -1.93343 -1.93344 h -8.40805 -8.40807 v 1.93344 1.93343 z m -62.39252,32.76942 0.04397,7.4e-4 -0.353261,-0.85234 -0.353261,-0.85235 -0.263885,-0.83768 -0.263884,-0.83769 -0.202443,-0.88242 -0.202442,-0.88242 -0.14142,-0.91756 -0.14142,-0.91756 -0.02215,-22.84072 -0.02215,-22.84072 0.06856,-0.84178 0.06856,-0.84179 0.103572,-0.69595 0.103572,-0.69596 0.193886,-0.8521 0.193885,-0.8521 0.268388,-0.85439 0.268388,-0.85439 0.326264,-0.78109 0.326264,-0.78109 0.42274,-0.84172 0.422741,-0.84172 0.577239,-0.90049 0.577238,-0.90048 0.564297,-0.72094 0.564297,-0.72094 0.614801,-0.67026 0.614802,-0.67025 0.591192,-0.53266 0.591193,-0.53265 0.16422,-0.14331 0.16422,-0.1433 0.689724,-0.52561 0.689725,-0.52561 0.706146,-0.44558 0.706147,-0.44557 v -0.028 -0.028 l -0.142811,0.0763 -0.142811,0.0763 -0.660319,0.42616 -0.660319,0.42617 -0.855493,0.66149 -0.855493,0.6615 -1.051009,1.05073 -1.051009,1.05074 -0.681707,0.87967 -0.681708,0.87966 -0.504103,0.79124 -0.504103,0.79123 -0.432698,0.82311 -0.432697,0.8231 -0.391759,0.94648 -0.391759,0.94648 -0.270256,0.88479 -0.270256,0.88479 -0.195543,0.88479 -0.195542,0.88479 -0.151456,1.08141 -0.151456,1.08141 v 22.90626 22.90626 l 0.151207,1.08141 0.151206,1.08141 0.220578,0.9831 0.220578,0.98311 0.239458,0.7537 0.239459,0.75372 0.374078,0.93332 0.374077,0.93333 z m 126.42628,-55.57732 h 0.0289 l -0.0412,-0.25697 -0.0412,-0.25697 -0.13826,-0.59916 -0.13827,-0.59916 -0.0307,0.0306 -0.0307,0.0307 0.18131,0.82547 0.18131,0.82548 z m -0.39608,-1.82594 0.0216,-0.0647 -0.29265,-0.9062 -0.29265,-0.9062 -0.35823,-0.85203 -0.35824,-0.85202 -0.40296,-0.75371 -0.40295,-0.75371 -9.9e-4,0.0601 -10e-4,0.0601 0.38994,0.7344 0.38994,0.7344 0.38559,0.94229 0.38559,0.94229 0.25767,0.8398 0.25767,0.83979 z m -2.16058,-5.16061 0.0259,-0.0234 -0.49037,-0.77151 -0.49037,-0.77152 -0.65227,-0.85023 -0.65227,-0.85022 -1.08386,-1.08512 -1.08385,-1.08511 -0.86805,-0.67104 -0.86806,-0.67103 -0.80699,-0.51403 -0.80699,-0.51402 -0.22991,-0.10838 -0.22991,-0.10838 0.0985,0.067 0.0985,0.067 0.85394,0.52936 0.85395,0.52936 0.68972,0.52235 0.68973,0.52236 0.74023,0.66398 0.74024,0.66397 0.61296,0.65959 0.61295,0.65958 0.68314,0.89085 0.68313,0.89085 0.42698,0.69055 0.42697,0.69055 z m -114.388825,-8.14954 0.788257,-0.40931 0.98532,-0.41131 0.985321,-0.4113 0.783519,-0.24348 0.78352,-0.24348 0.957214,-0.21816 0.957213,-0.21817 1.149541,-0.15311 1.14954,-0.1531 h 44.50365 44.50364 l 1.05101,0.1522 1.05101,0.15221 0.95247,0.22221 0.95248,0.22221 0.16422,0.0371 0.16422,0.0371 -0.16422,-0.0728 -0.16422,-0.0727 -0.95248,-0.21929 -0.95247,-0.21929 -1.05101,-0.15221 -1.05101,-0.1522 H 110.02106 65.386038 l -1.046819,0.15183 -1.046818,0.15183 -0.825291,0.18768 -0.82529,0.18767 -0.788257,0.23739 -0.788256,0.23738 -0.919632,0.36641 -0.919633,0.36642 -0.886789,0.454 -0.886788,0.45401 -0.06569,0.0708 -0.06569,0.0708 z m 106.102605,0.12412 0.0164,0.003 v -0.0322 -0.0322 l -0.64821,-0.32456 -0.64821,-0.32455 -0.64268,-0.26687 -0.64268,-0.26688 -0.024,0.024 -0.024,0.024 0.74015,0.30885 0.74015,0.30885 0.55834,0.28749 0.55835,0.28749 z m -2.71511,-1.24713 0.0602,0.005 -0.0338,-0.0338 -0.0338,-0.0338 -0.67974,-0.2284 -0.67974,-0.22839 -0.0692,0.005 -0.0692,0.005 0.72257,0.25185 0.72257,0.25186 z"
       id="path3" /></g></svg>
