<?xml version="1.0" encoding="UTF-8" standalone="no"?>
<!-- Created with Inkscape (http://www.inkscape.org/) -->

<svg
   width="129.07692mm"
   height="86.06707mm"
   viewBox="0 0 129.07692 86.06707"
   version="1.1"
   id="svg1"
   xml:space="preserve"
   xmlns:inkscape="http://www.inkscape.org/namespaces/inkscape"
   xmlns:sodipodi="http://sodipodi.sourceforge.net/DTD/sodipodi-0.dtd"
   xmlns="http://www.w3.org/2000/svg"
   xmlns:svg="http://www.w3.org/2000/svg"><sodipodi:namedview
     id="namedview1"
     pagecolor="#ffffff"
     bordercolor="#000000"
     borderopacity="0.25"
     inkscape:showpageshadow="2"
     inkscape:pageopacity="0.0"
     inkscape:pagecheckerboard="0"
     inkscape:deskcolor="#d1d1d1"
     inkscape:document-units="mm"
     inkscape:zoom="0.1712255"
     inkscape:cx="884.79811"
     inkscape:cy="689.14968"
     inkscape:window-width="1924"
     inkscape:window-height="1203"
     inkscape:window-x="0"
     inkscape:window-y="0"
     inkscape:window-maximized="0"
     inkscape:current-layer="layer1"><inkscape:page
       x="-2.5971543e-14"
       y="0"
       width="129.0769"
       height="86.06707"
       id="page2"
       margin="0"
       bleed="0" /></sodipodi:namedview><defs
     id="defs1" /><g
     inkscape:label="Layer 1"
     inkscape:groupmode="layer"
     id="layer1"
     transform="translate(-7.0569568,-189.96244)"><path
       style="fill:#000000;stroke-width:0.262645"
       d="m 72.166606,276.01949 -44.29037,0.01 -0.73006,-0.0515 -0.73007,-0.0515 -0.78501,-0.11214 -0.78502,-0.11214 -0.81416,-0.17975 -0.81417,-0.17975 -0.90388,-0.281 -0.90389,-0.28099 -0.76482,-0.31038 -0.76483,-0.31038 -0.95366,-0.47866 -0.95366,-0.47866 -0.78458,-0.49742 -0.78458,-0.49742 -0.83436,-0.64121 -0.83435,-0.64121 -0.65028,-0.59365 -0.65027,-0.59364 -0.62354,-0.68154 -0.62353,-0.68153 -0.55244,-0.71066 -0.55244,-0.71065 -0.50793,-0.78259 -0.50793,-0.78259 -0.4621699,-0.87147 -0.46217,-0.87148 -0.37638,-0.9058 -0.37639,-0.9058 -0.28269,-0.89667 -0.28269,-0.89667 -0.20723,-0.93761 -0.20723,-0.93762 -0.11494,-0.83344 -0.11493,-0.83344 -0.0615,-1.25015 -0.0615,-1.25016 v -21.00959 -21.00956 l 0.0615,-1.25015 0.0615,-1.25016 0.11493,-0.83343 0.11494,-0.83344 0.20723,-0.93762 0.20723,-0.93762 0.28269,-0.89666 0.28269,-0.89667 0.37758,-0.90911 0.37757,-0.90912 0.45688,-0.86297 0.4568699,-0.86297 0.51204,-0.78778 0.51203,-0.78778 0.55244,-0.71066 0.55244,-0.71065 0.62353,-0.68154 0.62354,-0.68153 0.65027,-0.59365 0.65028,-0.59364 0.83435,-0.64121 0.83436,-0.64122 0.77742,-0.49286 0.77742,-0.49285 0.96082,-0.48481 0.96082,-0.4848 0.76483,-0.3088 0.76482,-0.30879 0.90389,-0.28178 0.90388,-0.28178 0.97342,-0.20849 0.97341,-0.20849 0.93865,-0.1268 0.93865,-0.1268 h 44.63802 44.638034 l 1.04294,0.15323 1.04295,0.15324 0.93069,0.21184 0.93069,0.21184 0.84231,0.26901 0.84232,0.26902 0.79959,0.32824 0.79959,0.32824 0.86998,0.44084 0.86998,0.44085 0.82195,0.52495 0.82194,0.52495 0.8459,0.64058 0.84591,0.64058 1.18396,1.18176 1.18397,1.18176 0.66051,0.86817 0.66051,0.86816 0.5295,0.83344 0.5295,0.83344 0.45273,0.90289 0.45272,0.90289 0.31225,0.76398 0.31225,0.76399 0.28214,0.90289 0.28214,0.90289 0.20521,0.93761 0.20522,0.93762 0.1283,0.90289 0.12829,0.90289 v 23.30152 23.30152 l -0.12829,0.90289 -0.1283,0.90289 -0.20522,0.93762 -0.20521,0.93762 -0.28214,0.90289 -0.28214,0.90289 -0.31225,0.76398 -0.31225,0.76399 -0.45486,0.90289 -0.45487,0.90289 -0.52632,0.83343 -0.52632,0.83344 -0.66155,0.86817 -0.66155,0.86816 -1.18397,1.18176 -1.18396,1.18176 -0.84591,0.64058 -0.8459,0.64058 -0.82194,0.52495 -0.82195,0.52495 -0.86998,0.44085 -0.86998,0.44085 -0.79959,0.32824 -0.79959,0.32824 -0.84232,0.26901 -0.84231,0.26901 -0.93069,0.21179 -0.93069,0.21179 -0.97342,0.15071 -0.97341,0.15071 z m -0.52147,-0.21287 h 44.255614 l -22.127814,-0.0176 -22.1278,-0.0176 -22.12781,0.0176 -22.1278,0.0176 z m -44.67858,-0.0448 0.41138,0.01 -0.029,-0.0253 -0.029,-0.0253 -0.66053,-0.0362 -0.66053,-0.0362 0.27812,0.0516 0.27811,0.0516 z m 89.351374,-0.0117 0.41718,7.9e-4 -0.18997,-0.0288 -0.18996,-0.0288 -0.22721,0.0281 -0.22722,0.0281 z m 0.69529,-0.0654 0.27812,10e-4 -0.12086,-0.0316 -0.12087,-0.0316 -0.15725,0.0302 -0.15725,0.0302 z m -91.292404,-0.0695 0.27812,10e-4 -0.12087,-0.0316 -0.12087,-0.0316 -0.15725,0.0302 -0.15725,0.0302 z m 46.65438,-0.0135 43.734144,-0.009 1.03926,-0.1564 1.03925,-0.1564 0.94234,-0.20893 0.94234,-0.20892 0.83435,-0.26597 0.83436,-0.26596 0.79959,-0.32912 0.79959,-0.32912 0.76483,-0.38243 0.76482,-0.38242 0.91234,-0.57275 0.91232,-0.57275 0.73011,-0.563 0.73011,-0.563 0.67833,-0.61775 0.67833,-0.61774 0.62346,-0.68311 0.62347,-0.6831 0.54405,-0.70179 0.54406,-0.70178 0.55243,-0.86387 0.55244,-0.86387 0.45469,-0.90289 0.45468,-0.90289 0.31225,-0.76399 0.31225,-0.76398 0.27964,-0.90289 0.27964,-0.90289 0.18234,-0.82588 0.18234,-0.82587 0.15367,-1.04936 0.15367,-1.04936 v -23.02369 -23.02371 l -0.15367,-1.04935 -0.15367,-1.04936 -0.18234,-0.82588 -0.18234,-0.82587 -0.27964,-0.90289 -0.27964,-0.90289 -0.31225,-0.76399 -0.31225,-0.76398 -0.45468,-0.90289 -0.45469,-0.90289 -0.55244,-0.86388 -0.55243,-0.86387 -0.54406,-0.70178 -0.54405,-0.70178 -0.62347,-0.68311 -0.62346,-0.68311 -0.67833,-0.61774 -0.67833,-0.61774 -0.73011,-0.56301 -0.73011,-0.563 -0.91232,-0.57275 -0.91234,-0.57274 -0.76482,-0.38243 -0.76483,-0.38243 -0.79959,-0.32912 -0.79959,-0.32911 -0.83436,-0.26597 -0.83435,-0.26597 -0.94373,-0.20923 -0.94373,-0.20923 -1.1074,-0.15889 -1.10739,-0.15889 H 71.645136 27.319996 l -1.13052,0.15811 -1.13053,0.15811 -0.90701,0.20569 -0.90702,0.20569 -0.81318,0.25415 -0.81317,0.25415 -0.76483,0.30791 -0.76482,0.30792 -0.97062,0.48978 -0.97062,0.48978 -0.8735,0.56852 -0.87351,0.56851 -0.798,0.61936 -0.798,0.61935 -1.04329,1.04277 -1.04329,1.04277 -0.66842,0.8693 -0.66841,0.8693 -0.48516,0.76285 -0.48516,0.76285 -0.4243399,0.79871 -0.42435,0.79871 -0.3777,0.90912 -0.3777,0.90911 -0.28008,0.89667 -0.28007,0.89666 -0.21143,0.97235 -0.21142,0.97234 -0.12513,0.90289 -0.12514,0.90289 v 23.09316 23.09316 l 0.12514,0.90289 0.12513,0.90289 0.21142,0.97235 0.21143,0.97234 0.28007,0.89667 0.28008,0.89666 0.3777,0.90912 0.3777,0.90911 0.42435,0.79871 0.4243399,0.79871 0.48516,0.76285 0.48516,0.76285 0.66841,0.8693 0.66842,0.8693 1.04329,1.04277 1.04329,1.04277 0.7975,0.61898 0.79751,0.61897 0.80168,0.52292 0.80167,0.52293 0.90388,0.47275 0.90389,0.47275 0.90388,0.37145 0.90389,0.37145 0.81317,0.25362 0.81318,0.25362 0.8903,0.2004 0.8903,0.2004 0.86912,0.12149 0.86912,0.1215 0.93865,0.0484 0.93865,0.0484 z m -0.41718,-21.04915 -1.8773,0.0234 -0.20859,-0.0283 -0.20859,-0.0283 -0.90388,-0.11115 -0.90389,-0.11115 -1.00818,-0.2309 -1.00818,-0.2309 -0.79959,-0.25088 -0.79959,-0.25088 -0.90388,-0.37612 -0.90389,-0.37612 -0.83435,-0.43268 -0.83436,-0.43267 -0.87436,-0.56764 -0.87436,-0.56763 -0.65529,-0.50757 -0.65529,-0.50758 -0.72452,-0.666 -0.72452,-0.66601 -0.63983,-0.70727 -0.63982,-0.70728 -0.55023,-0.71651 -0.55024,-0.71651 -0.5262,-0.83344 -0.52621,-0.83344 -0.3857,-0.73138 -0.3857,-0.73138 -0.36364,-0.86604 -0.36364,-0.86604 -0.30013,-0.93762 -0.30013,-0.93762 -0.20841,-0.93761 -0.20842,-0.93762 -0.14616,-1.11125 -0.14615,-1.11125 v -1.5627 -1.56269 l 0.14615,-1.11125 0.14616,-1.11125 0.20756,-0.93762 0.20756,-0.93762 0.3088,-0.95293 0.3088,-0.95294 0.35582,-0.85072 0.35583,-0.85072 0.3857,-0.73138 0.3857,-0.73138 0.52575,-0.83344 0.52574,-0.83344 0.69594,-0.90289 0.69595,-0.90289 1.08003,-1.07884 1.08004,-1.07885 0.90388,-0.6952 0.90389,-0.6952 0.6953,-0.44327 0.69529,-0.44327 0.90389,-0.47983 0.90388,-0.47983 0.91428,-0.37501 0.91428,-0.375 0.85873,-0.2711 0.85872,-0.27111 0.97342,-0.21391 0.97341,-0.21392 0.86912,-0.12384 0.86912,-0.12385 h 1.9816 1.98159 l 0.90389,0.12908 0.90388,0.12908 0.90389,0.20234 0.90388,0.20234 0.8947,0.28099 0.89469,0.281 0.77402,0.31636 0.77402,0.31637 0.88261,0.44147 0.88261,0.44147 0.88818,0.56571 0.88818,0.56571 0.89761,0.69592 0.89761,0.69592 1.02402,1.02289 1.02402,1.02289 0.69449,0.89441 0.69448,0.89441 0.57034,0.90289 0.57033,0.90289 0.40773,0.79871 0.40773,0.79871 0.34584,0.84047 0.34585,0.84046 0.28244,0.89586 0.28243,0.89587 0.20565,0.93761 0.20565,0.93762 0.12708,0.90289 0.12708,0.90289 v 1.90996 1.90996 l -0.12708,0.9029 -0.12708,0.90288 -0.20565,0.93762 -0.20565,0.93762 -0.28243,0.89586 -0.28244,0.89587 -0.34585,0.84046 -0.34584,0.84047 -0.40773,0.79871 -0.40773,0.79871 -0.55342,0.87546 -0.55342,0.87547 -0.68398,0.89169 -0.68399,0.89169 -1.04742,1.04992 -1.04741,1.04992 -0.91815,0.71184 -0.91814,0.71184 -0.91992,0.57754 -0.91992,0.57755 -0.83436,0.41685 -0.83435,0.41684 -0.77402,0.31635 -0.77402,0.31635 -0.89469,0.28122 -0.8947,0.28122 -0.79959,0.18209 -0.79959,0.18209 -0.90388,0.13682 -0.90389,0.13683 z m -0.56203,-0.1085 0.13327,0.005 -0.042,-0.042 -0.042,-0.042 -0.0913,0.0365 -0.0913,0.0365 z m 0.21438,0.005 h 0.0348 v -0.0347 -0.0347 h -0.0348 -0.0348 v 0.0347 0.0347 z m 0.24336,-0.011 h 0.17382 l -0.0869,-0.035 -0.0869,-0.035 -0.0869,0.035 -0.0869,0.035 z m -1.32106,-0.0842 h 0.73006 l -0.36503,-0.0255 -0.36503,-0.0255 -0.36504,0.0255 -0.36503,0.0255 z m 2.19018,2.6e-4 0.69529,2.6e-4 -0.32793,-0.0259 -0.32794,-0.0259 -0.36736,0.0256 -0.36736,0.0256 z m -3.19836,-0.0632 0.27811,5.2e-4 -0.34764,-0.0541 -0.34765,-0.0541 -0.20859,0.004 -0.20859,0.004 0.27812,0.0497 0.27812,0.0497 z m 4.2413,0.002 0.27812,10e-4 -0.12086,-0.0316 -0.12087,-0.0316 -0.15725,0.0302 -0.15726,0.0302 z m 0.55624,-0.0694 0.27812,10e-4 -0.12087,-0.0316 -0.12086,-0.0316 -0.15726,0.0302 -0.15725,0.0302 z m -5.91002,-0.0695 0.27812,0.001 -0.12087,-0.0316 -0.12086,-0.0316 -0.15725,0.0302 -0.15726,0.0302 z m 3.74287,-0.0246 1.30933,-0.0314 0.98515,-0.13415 0.98514,-0.13414 0.79959,-0.18005 0.7996,-0.18005 0.90374,-0.28253 0.90375,-0.28252 0.76496,-0.31265 0.76497,-0.31265 0.83435,-0.41727 0.83436,-0.41727 0.83435,-0.52502 0.83436,-0.52502 0.86912,-0.66125 0.86912,-0.66125 1.14998,-1.14871 1.14997,-1.14871 0.66096,-0.86817 0.66095,-0.86816 0.44146,-0.69336 0.44145,-0.69336 0.47193,-0.90407 0.47194,-0.90405 0.34437,-0.84047 0.34437,-0.84046 0.27993,-0.89586 0.27994,-0.89587 0.18233,-0.8239 0.18234,-0.8239 0.14331,-1.01661 0.14331,-1.01661 0.003,-1.66687 0.003,-1.66688 -0.14953,-1.07652 -0.14954,-1.07652 -0.20271,-0.87793 -0.2027,-0.87793 -0.25237,-0.80755 -0.25237,-0.80754 -0.3496,-0.84956 -0.34959,-0.84957 -0.40829,-0.79998 -0.40829,-0.79999 -0.50249,-0.79743 -0.50249,-0.79744 -0.58453,-0.76399 -0.58453,-0.76398 -0.63653,-0.69453 -0.63653,-0.69453 -0.69695,-0.63835 -0.69694,-0.63835 -0.76318,-0.58172 -0.76318,-0.58173 -0.83435,-0.52455 -0.83436,-0.52456 -0.83435,-0.41727 -0.83436,-0.41728 -0.76497,-0.31264 -0.76496,-0.31265 -0.90375,-0.28252 -0.90374,-0.28253 -0.79959,-0.18005 -0.79959,-0.18005 -1.00818,-0.14456 -1.00818,-0.14455 -1.77301,-8.9e-4 -1.773,-9e-4 -1.00818,0.14523 -1.00818,0.14522 -0.90801,0.2066 -0.908,0.20661 -0.79547,0.25508 -0.79547,0.25509 -0.90389,0.36885 -0.90388,0.36886 -0.90389,0.48014 -0.90389,0.48014 -0.72034,0.46717 -0.72034,0.46717 -0.70501,0.54513 -0.70502,0.54513 -0.66053,0.60109 -0.66053,0.6011 -0.61533,0.67306 -0.61532,0.67307 -0.54014,0.69453 -0.54014,0.69453 -0.51699,0.79871 -0.51699,0.79871 -0.42763,0.80958 -0.42763,0.80958 -0.36087,0.8573 -0.36088,0.85729 -0.29459,0.93762 -0.29459,0.93761 -0.21339,0.97235 -0.21339,0.97234 -0.12266,0.90289 -0.12266,0.90289 v 1.7016 1.7016 l 0.12266,0.9029 0.12266,0.90289 0.21339,0.97234 0.21339,0.97234 0.29459,0.93762 0.29459,0.93762 0.35122,0.83343 0.35123,0.83344 0.43706,0.83344 0.43706,0.83344 0.51721,0.79871 0.51721,0.79871 0.54014,0.69453 0.54014,0.69453 0.61532,0.67306 0.61533,0.67307 0.66053,0.6011 0.66053,0.60109 0.70502,0.54513 0.70501,0.54513 0.72034,0.46717 0.72034,0.46717 0.90389,0.48014 0.90389,0.48014 0.90388,0.36886 0.90389,0.36885 0.79547,0.25508 0.79547,0.25509 0.908,0.20616 0.90801,0.20617 0.76482,0.10958 0.76483,0.10957 0.73006,0.0562 0.73006,0.0562 z m -6.59431,-10.65353 h -0.20872 l -2.10284,-2.10138 -2.10285,-2.10138 v -0.20763 -0.20764 l 2.93732,-2.9347 2.93733,-2.93469 -2.93733,-2.9347 -2.93732,-2.9347 v -0.20848 -0.20848 l 2.1037,-2.10053 2.10369,-2.10053 h 0.20786 0.20787 l 2.93793,2.93409 2.93793,2.93408 2.93793,-2.93408 2.93793,-2.93409 h 0.17394 0.17394 l 2.13762,2.13609 2.13761,2.1361 v 0.17292 0.17291 l -2.93732,2.9347 -2.93732,2.9347 2.93732,2.93469 2.93732,2.9347 v 0.17375 0.17375 l -2.13845,2.13527 -2.13845,2.13526 h -0.1731 -0.17311 l -2.93793,-2.93409 -2.93793,-2.93409 -2.93793,2.93409 -2.93793,2.93409 z m 0.0354,-0.20836 h 0.10504 l 2.91962,-2.91703 2.91962,-2.91703 h 0.10492 0.10491 l 2.91963,2.91703 2.91962,2.91703 h 0.10504 0.10504 l 2.06807,-2.06666 2.06807,-2.06666 v -0.10405 -0.10406 l -2.97239,-2.95145 -2.97239,-2.95146 2.93763,2.95206 2.93762,2.95207 v 0.10344 0.10344 l -2.0333,2.03194 -2.03329,2.03194 h -0.10505 -0.10505 l -2.91962,-2.91704 -2.91963,-2.91703 h -0.10491 -0.10492 l -2.91962,2.91703 -2.91962,2.91704 h -0.10417 -0.10417 l -2.03418,-2.03107 -2.03418,-2.03106 v -0.10493 -0.10493 l 2.92025,-2.91641 2.92024,-2.91641 v -0.1048 -0.1048 l -2.92024,-2.91641 -2.92025,-2.91641 v -0.10406 -0.10405 l 2.0333,-2.03194 2.0333,-2.03194 h 0.10505 0.10505 l 2.91962,2.91703 2.91962,2.91703 h 0.10492 0.10491 l 2.91963,-2.91703 2.91962,-2.91703 h 0.10417 0.10417 l 2.03418,2.03106 2.03417,2.03106 v 0.10432 0.10432 l -2.93762,2.95206 -2.93763,2.95206 2.97239,-2.95145 2.97239,-2.95145 v -0.10406 -0.10406 l -2.06807,-2.06666 -2.06807,-2.06665 h -0.10504 -0.10504 l -2.91962,2.91703 -2.91963,2.91703 h -0.10491 -0.10492 l -2.91962,-2.91703 -2.91962,-2.91703 h -0.10504 -0.10504 l -2.06807,2.06665 -2.06808,2.06666 v 0.10406 0.10407 l 2.92025,2.91641 2.92024,2.91641 v 0.1048 0.1048 l -2.92024,2.91641 -2.92025,2.91641 v 0.10406 0.10406 l 2.06808,2.06666 2.06807,2.06666 z m 2.88552,-3.19477 2.92093,-2.91711 h 0.20798 0.20799 l 2.93785,2.93402 2.93786,2.93401 1.98174,-1.97865 1.98175,-1.97865 -2.92032,-2.91772 -2.92032,-2.91771 v -0.24248 -0.24248 l 2.92032,-2.91772 2.92032,-2.91771 -1.98175,-1.97865 -1.98174,-1.97865 -2.93786,2.93401 -2.93785,2.93401 h -0.20799 -0.20798 l -2.92093,-2.91711 -2.92092,-2.9171 -1.98084,1.97956 -1.98083,1.97957 2.93725,2.93462 2.93724,2.93462 v 0.17303 0.17302 l -2.93724,2.93463 -2.93725,2.93462 1.98083,1.97956 1.98084,1.97957 z m 6.28682,14.09184 0.16813,0.007 0.44404,-0.0772 0.44405,-0.0772 -0.0277,-0.0277 -0.0277,-0.0277 -0.58448,0.0978 -0.58448,0.0978 z m -6.84298,-0.0759 0.20859,0.003 -0.0856,-0.0346 -0.0856,-0.0346 -0.123,0.032 -0.123,0.032 z m -0.35344,-0.0614 0.13327,0.006 -0.042,-0.042 -0.042,-0.042 -0.0913,0.0365 -0.0913,0.0365 z m -0.30709,-0.0749 h 0.17383 l -0.0869,-0.035 -0.0869,-0.035 -0.0869,0.035 -0.0869,0.035 z m 8.72597,-0.003 h 0.13906 l 0.17382,-0.0556 0.17383,-0.0556 h -0.13906 -0.13906 l -0.17382,0.0556 -0.17383,0.0556 z m -9.04465,-0.0611 0.13327,0.005 -0.042,-0.042 -0.042,-0.042 -0.0913,0.0365 -0.0913,0.0365 z m -0.30708,-0.0749 h 0.17382 l -0.0869,-0.035 -0.0869,-0.035 -0.0869,0.035 -0.0869,0.035 z m 9.938,0.006 0.0996,0.005 0.54671,-0.14736 0.54672,-0.14735 -0.0273,-0.0273 -0.0273,-0.0273 -0.61894,0.16957 -0.61894,0.16957 z m -10.25668,-0.0699 0.13326,0.005 -0.042,-0.042 -0.042,-0.042 -0.0913,0.0365 -0.0913,0.0365 z m -0.27812,-0.0695 0.13326,0.006 -0.042,-0.042 -0.042,-0.042 -0.0913,0.0365 -0.0913,0.0365 z m -0.23756,-0.064 h 0.0927 l -0.0464,-0.0463 -0.0463,-0.0463 -0.0464,0.0463 -0.0464,0.0463 z m -0.20859,-0.0695 h 0.0927 l -0.0464,-0.0463 -0.0464,-0.0463 -0.0463,0.0463 -0.0464,0.0463 z m -0.20859,-0.0802 h 0.1043 l -0.34765,-0.12814 -0.34765,-0.12814 h -0.10429 -0.1043 l 0.34765,0.12814 0.34765,0.12814 z m 12.51534,0.0108 h 0.0927 l -0.0463,-0.0463 -0.0464,-0.0463 -0.0464,0.0463 -0.0463,0.0463 z m 0.20858,-0.0694 h 0.0927 l -0.0464,-0.0463 -0.0464,-0.0463 -0.0463,0.0463 -0.0464,0.0463 z m 0.17771,-0.0746 0.0734,0.005 0.43457,-0.1466 0.43457,-0.14659 -0.0266,-0.0265 -0.0266,-0.0266 -0.4814,0.16797 -0.48141,0.16797 z m -13.80551,-0.13374 h 0.0927 l -0.0463,-0.0463 -0.0464,-0.0463 -0.0464,0.0463 -0.0463,0.0463 z m -0.17383,-0.0716 h 0.0695 l -0.10429,-0.0673 -0.1043,-0.0673 h -0.0695 -0.0695 l 0.1043,0.0673 0.10429,0.0673 z m -0.34765,-0.1389 h 0.0695 l -0.10429,-0.0673 -0.10429,-0.0673 h -0.0695 -0.0695 l 0.10429,0.0673 0.1043,0.0673 z m 15.36605,0.002 h 0.0348 v -0.0347 -0.0347 h -0.0348 -0.0348 v 0.0347 0.0347 z m 0.13906,-0.0716 h 0.0695 l 0.1043,-0.0673 0.10429,-0.0673 h -0.0695 -0.0695 l -0.10429,0.0673 -0.1043,0.0673 z m -15.85275,-0.0722 h 0.0695 l -0.17383,-0.0993 -0.17382,-0.0993 h -0.0695 -0.0695 l 0.17382,0.0993 0.17383,0.0993 z m 16.2004,-0.0667 h 0.0695 l 0.10429,-0.0673 0.1043,-0.0673 h -0.0695 -0.0695 l -0.10429,0.0673 -0.1043,0.0673 z m -16.68711,-0.13891 h 0.0695 l -0.1043,-0.0673 -0.10429,-0.0673 h -0.0695 -0.0695 l 0.1043,0.0673 0.10429,0.0673 z m 17.03476,-0.003 h 0.0695 l 0.17382,-0.0993 0.17383,-0.0993 h -0.0695 -0.0695 l -0.17383,0.0993 -0.17382,0.0993 z m -17.41307,-0.13398 h 0.0654 v -0.0273 -0.0273 l -0.10791,-0.0414 -0.10791,-0.0414 0.0425,0.0687 0.0425,0.0687 z m 17.89164,-0.0694 h 0.0498 l 0.20513,-0.10596 0.20514,-0.10596 v -0.0347 -0.0347 l -0.22597,0.1148 -0.22597,0.11479 -0.029,0.0259 -0.029,0.0259 z m -18.14489,-0.0727 0.0637,0.003 -0.029,-0.0264 -0.029,-0.0264 -0.36503,-0.18316 -0.36503,-0.18315 v 0.0346 0.0346 l 0.33027,0.17173 0.33026,0.17173 z m 18.70926,-0.20512 h 0.0348 v -0.0347 -0.0347 h -0.0348 -0.0348 v 0.0347 0.0347 z m 0.13906,-0.0694 h 0.0348 v -0.0347 -0.0347 h -0.0348 -0.0348 v 0.0347 0.0347 z m 0.13906,-0.0694 h 0.0348 v -0.0347 -0.0347 h -0.0348 -0.0348 v 0.0347 0.0347 z m -19.81594,-0.0695 h 0.0348 v -0.0347 -0.0347 h -0.0348 -0.0348 v 0.0347 0.0347 z m 20.26788,-0.17364 0.34765,-0.17597 v -0.0347 -0.0347 l -0.34765,0.17597 -0.34764,0.17598 v 0.0347 0.0347 z m -20.40694,0.10418 h 0.0348 v -0.0347 -0.0347 h -0.0348 -0.0348 v 0.0347 0.0347 z m -0.13906,-0.0694 h 0.0348 v -0.0347 -0.0347 h -0.0348 -0.0348 v 0.0347 0.0347 z m -0.13906,-0.0695 h 0.0348 v -0.0347 -0.0347 h -0.0348 -0.0348 v 0.0347 0.0347 z m -0.10777,-0.0701 0.0313,5.3e-4 -0.0661,-0.0583 -0.0661,-0.0583 -0.26074,-0.15569 -0.26073,-0.15568 v 0.0365 0.0365 l 0.2955,0.17691 0.2955,0.17691 z m 21.24478,-0.13825 h 0.0348 v -0.0347 -0.0347 h -0.0348 -0.0348 v 0.0347 0.0347 z m 0.28271,-0.17526 0.21318,-0.11741 0.16923,-0.13726 0.16923,-0.13728 -0.21318,0.1174 -0.21318,0.1174 -0.16923,0.13727 -0.16923,0.13728 z m -22.24997,-0.10255 h 0.0307 v -0.0306 -0.0306 l -0.0803,-0.0496 -0.0803,-0.0496 0.0496,0.0802 0.0496,0.0802 z m -0.17793,-0.14228 0.0348,-10e-4 -0.13905,-0.10706 -0.13906,-0.10706 -0.12168,-0.0668 -0.12168,-0.0668 v 0.0303 0.0303 l 0.22597,0.14456 0.22597,0.14455 z m 23.04087,-0.13553 h 0.0348 l 0.043,-0.0694 0.043,-0.0694 h -0.0348 -0.0348 l -0.043,0.0694 -0.043,0.0694 z m 0.37852,-0.25058 0.23126,-0.13141 0.22068,-0.19393 0.22069,-0.19393 -0.38242,0.25831 -0.38241,0.25833 -0.0695,0.067 -0.0695,0.067 z m -24.00629,0.0422 h 0.0307 v -0.0306 -0.0306 l -0.0803,-0.0496 -0.0803,-0.0496 0.0496,0.0802 0.0496,0.0802 z m -0.20859,-0.13891 h 0.0307 v -0.0306 -0.0306 l -0.0803,-0.0496 -0.0803,-0.0496 0.0496,0.0802 0.0496,0.0802 z m -0.20418,-0.1389 h 0.0263 v -0.0262 -0.0262 l -0.12168,-0.0953 -0.12168,-0.0953 0.0954,0.12154 0.0954,0.12154 z m -0.27812,-0.20836 h 0.0263 v -0.0262 -0.0262 l -0.12168,-0.0953 -0.12168,-0.0953 0.0954,0.12154 0.0954,0.12154 z m 25.43082,-0.0694 h 0.0263 l 0.0954,-0.12155 0.0954,-0.12154 -0.12168,0.0953 -0.12168,0.0953 v 0.0262 0.0262 z m -25.70006,-0.13994 0.0174,10e-4 v -0.0289 -0.0289 l -0.2955,-0.22077 -0.2955,-0.22077 0.27812,0.24862 0.27811,0.24863 z m 26.26481,-0.31234 0.34765,-0.25124 0.85174,-0.76928 0.85174,-0.76927 v -0.0307 -0.0307 l -0.37504,0.33566 -0.37504,0.33565 -0.55042,0.48617 -0.55043,0.48618 -0.27392,0.22938 -0.27392,0.22938 z m -26.88337,-0.1728 h 0.0362 l -0.55188,-0.49601 -0.55189,-0.496 -0.7535,-0.77152 -0.75351,-0.77151 -0.45165,-0.57299 -0.45165,-0.57299 h -0.0353 -0.0353 l 0.36712,0.46881 0.36712,0.46881 0.59526,0.64805 0.59525,0.64804 0.79377,0.72365 0.79377,0.72366 z m 28.93925,-1.73631 h 0.0348 l 0.37767,-0.382 0.37766,-0.38199 h -0.0348 -0.0348 l -0.37766,0.38199 -0.37767,0.382 z m 0.78183,-0.83344 h 0.0218 l 0.20421,-0.22573 0.20422,-0.22572 -0.22598,0.20399 -0.22597,0.20399 v 0.0217 0.0217 z m 0.4185,-0.48618 h 0.0348 l 0.22027,-0.27781 0.22027,-0.27781 h -0.0348 -0.0348 l -0.22027,0.27781 -0.22027,0.27781 z m 0.48988,-0.62507 h 0.0262 l 0.0954,-0.12155 0.0954,-0.12154 -0.12168,0.0953 -0.12167,0.0953 v 0.0262 0.0262 z m -34.19155,-0.0695 h 0.0263 v -0.0262 -0.0262 l -0.12168,-0.0953 -0.12168,-0.0953 0.0954,0.12154 0.0954,0.12154 z m 34.56216,-0.39408 0.19414,-0.22044 0.13156,-0.231 0.13155,-0.23101 -0.0671,0.0695 -0.0671,0.0694 -0.2586,0.382 -0.25861,0.38199 z m -34.77219,0.11626 h 0.0348 l -0.19091,-0.26045 -0.19091,-0.26044 -0.0662,-0.0694 -0.0662,-0.0694 0.0552,0.10418 0.0552,0.10417 0.1671,0.22573 0.16711,0.22572 z m -0.48968,-0.69453 h 0.0307 v -0.0306 -0.0306 l -0.0803,-0.0496 -0.0803,-0.0496 0.0496,0.0802 0.0496,0.0802 z m 35.72592,-0.1389 h 0.0348 l 0.043,-0.0694 0.043,-0.0695 h -0.0348 -0.0348 l -0.043,0.0695 -0.043,0.0694 z m -35.86253,-0.0694 h 0.0331 l -0.0669,-0.12155 -0.0669,-0.12154 -0.11672,-0.13891 -0.11672,-0.1389 0.0993,0.17363 0.0993,0.17363 0.0512,0.0868 0.0512,0.0868 z m 36.08059,-0.24309 0.11322,-0.13891 0.0683,-0.1389 0.0683,-0.13891 -0.11322,0.13891 -0.11323,0.1389 -0.0683,0.13891 -0.0683,0.13891 z m -36.43069,-0.31254 h 0.0307 v -0.0306 -0.0306 l -0.0803,-0.0496 -0.0803,-0.0495 0.0496,0.0802 0.0496,0.0802 z m 36.69934,-0.1389 h 0.0348 l 0.043,-0.0694 0.043,-0.0695 h -0.0348 -0.0348 l -0.043,0.0695 -0.043,0.0694 z m -36.83761,-0.0694 h 0.0348 l -0.0744,-0.13891 -0.0744,-0.13891 h -0.0348 -0.0348 l 0.0744,0.13891 0.0744,0.13891 z m 36.98313,-0.13891 h 0.0348 l 0.2451,-0.48617 0.24511,-0.48617 h -0.0348 -0.0348 l -0.24511,0.48617 -0.2451,0.48617 z m -37.19661,-0.20836 h 0.0348 v -0.0347 -0.0347 h -0.0348 -0.0348 v 0.0347 0.0347 z m -0.0695,-0.13891 h 0.0348 v -0.0347 -0.0347 h -0.0348 -0.0348 v 0.0347 0.0347 z m -0.0695,-0.1389 h 0.0348 v -0.0347 -0.0347 h -0.0348 -0.0348 v 0.0347 0.0347 z m -0.0693,-0.13891 h 0.0336 l -0.32676,-0.65706 -0.32676,-0.65707 -0.0248,0.0248 -0.0248,0.0247 0.31792,0.63232 0.31792,0.63232 z m 37.96293,-0.41672 h 0.0348 v -0.0347 -0.0347 h -0.0348 -0.0348 v 0.0347 0.0347 z m 0.0695,-0.1389 h 0.0348 v -0.0347 -0.0347 h -0.0348 -0.0348 v 0.0347 0.0347 z m 0.0695,-0.13891 h 0.0348 v -0.0347 -0.0347 h -0.0348 -0.0348 v 0.0347 0.0347 z m 0.0695,-0.13891 h 0.0348 v -0.0347 -0.0347 h -0.0348 -0.0348 v 0.0347 0.0347 z m 0.11292,-0.18984 0.0864,-0.0857 -0.0389,-0.0389 -0.0389,-0.0389 -0.0475,0.12454 -0.0475,0.12454 z m 0.13043,-0.29633 0.0674,-0.10418 v -0.0695 -0.0695 l -0.0674,0.10418 -0.0674,0.10418 v 0.0695 0.0694 z m -39.11041,-0.0694 h 0.0348 v -0.0347 -0.0347 h -0.0348 -0.0348 v 0.0347 0.0347 z m -0.0546,-0.16542 0.0326,-0.0325 -0.0738,-0.12675 -0.0738,-0.12676 -0.002,0.0464 -0.002,0.0464 0.0434,0.11286 0.0434,0.11285 z m 39.33881,-0.18184 0.0994,-0.17363 v -0.0695 -0.0694 l -0.0994,0.17363 -0.0994,0.17363 v 0.0695 0.0694 z m -39.47787,-0.16543 0.0326,-0.0325 -0.0738,-0.12675 -0.0738,-0.12675 -0.002,0.0464 -0.002,0.0464 0.0434,0.11285 0.0434,0.11286 z m 39.65169,-0.25129 0.0674,-0.10418 v -0.0695 -0.0694 l -0.0674,0.10418 -0.0674,0.10418 v 0.0694 0.0695 z m -39.78897,-0.0977 0.0289,-0.0289 -0.10695,-0.19713 -0.10696,-0.19714 -0.003,0.0488 -0.003,0.0488 0.0808,0.17719 0.0808,0.1772 z m 39.92803,-0.24952 0.0674,-0.10418 v -0.0695 -0.0694 l -0.0674,0.10418 -0.0674,0.10418 v 0.0694 0.0695 z m -40.14177,-0.23151 0.0464,-0.0463 -0.0464,-0.0463 -0.0463,-0.0463 v 0.0926 0.0926 z m 40.28083,-0.11575 0.0674,-0.10418 -0.004,-0.10418 -0.004,-0.10418 -0.0598,0.1389 -0.0598,0.13891 -0.004,0.0695 -0.004,0.0694 z m -40.35036,-0.0926 0.0463,-0.0463 -0.0463,-0.0463 -0.0464,-0.0463 v 0.0926 0.0926 z m -0.0695,-0.20836 0.0464,-0.0463 -0.0464,-0.0463 -0.0463,-0.0463 v 0.0926 0.0926 z m 40.53578,-0.0695 0.0463,-0.0463 -0.0463,-0.0463 -0.0464,-0.0463 v 0.0926 0.0926 z m -40.60531,-0.13891 0.0463,-0.0463 -0.0463,-0.0463 -0.0463,-0.0463 v 0.0926 0.0926 z m 40.67483,-0.0695 0.0464,-0.0463 -0.0464,-0.0463 -0.0463,-0.0463 v 0.0926 0.0926 z m -40.73999,-0.14327 0.0284,-0.0284 -0.0855,-0.28502 -0.0855,-0.28503 -0.0284,0.0284 -0.0284,0.0284 0.0855,0.28503 0.0855,0.28502 z m 40.80952,-0.0651 0.0464,-0.0463 -0.0464,-0.0463 -0.0463,-0.0463 v 0.0926 0.0926 z m 0.12747,-0.39357 0.0937,-0.24309 v -0.10418 -0.10418 l -0.0937,0.24309 -0.0937,0.24309 v 0.10418 0.10418 z m -41.14995,-0.23151 0.0463,-0.0463 -0.0463,-0.0463 -0.0463,-0.0463 v 0.0926 0.0926 z m -0.0695,-0.20836 0.0464,-0.0463 -0.0464,-0.0463 -0.0463,-0.0463 v 0.0926 0.0926 z m 41.39331,-0.15048 0.0598,-0.13891 -0.002,-0.13891 -0.002,-0.1389 -0.0557,0.17363 -0.0557,0.17363 -0.002,0.10419 -0.002,0.10417 z m -41.46314,-0.0868 0.0351,-0.0868 -0.0351,-0.0868 -0.0351,-0.0868 v 0.17363 0.17364 z m -0.0736,-0.31399 0.042,-0.042 -0.0365,-0.0912 -0.0365,-0.0912 -0.005,0.13312 -0.005,0.13312 z m 41.67577,-0.18955 0.0557,-0.17363 v -0.13891 -0.1389 l -0.0557,0.17363 -0.0557,0.17363 v 0.13891 0.13891 z m -41.74126,-0.12154 0.0351,-0.0868 -0.0351,-0.0868 -0.0351,-0.0868 v 0.17363 0.17364 z m -0.0736,-0.31399 0.042,-0.042 -0.0365,-0.0912 -0.0365,-0.0911 -0.005,0.13312 -0.005,0.13312 z m 41.95389,-0.18954 0.0557,-0.17364 v -0.1389 -0.13891 l -0.0557,0.17363 -0.0557,0.17364 v 0.1389 0.13891 z m -42.01938,-0.12155 0.0351,-0.0868 -0.0351,-0.0868 -0.0351,-0.0868 v 0.17364 0.17363 z m -0.0695,-0.34726 0.0351,-0.0868 -0.0351,-0.0868 -0.0351,-0.0868 v 0.17363 0.17363 z m 42.23196,-0.26045 0.0575,-0.27781 -0.005,-0.20836 -0.005,-0.20836 -0.0557,0.31254 -0.0557,0.31253 0.003,0.17364 0.003,0.17363 z m -42.29977,-0.12073 0.0317,-0.12074 -0.0302,-0.15708 -0.0302,-0.15708 -10e-4,0.27782 -10e-4,0.27781 z m -0.068,-0.49574 0.0325,-0.0324 -0.0493,-0.46006 -0.0493,-0.46005 -0.0325,0.0324 -0.0325,0.0324 0.0493,0.46005 0.0493,0.46006 z m 42.50636,-0.3906 0.0557,-0.31254 -0.004,-0.24309 -0.004,-0.24308 -0.0542,0.34726 -0.0541,0.34727 0.003,0.20836 0.003,0.20836 z m -42.64373,-0.91793 0.0259,-0.32757 -0.0256,-0.36696 -0.0256,-0.36696 -3.5e-4,0.69453 -3.4e-4,0.69454 z m 42.7611,-0.28014 0.0251,-0.39935 -0.0251,-0.39936 -0.0251,-0.39935 v 0.79871 0.79871 z m -42.80881,-1.47588 0.0499,-0.69453 -0.004,-0.59035 -0.004,-0.59035 -0.0488,0.76398 -0.0488,0.76399 0.003,0.5209 0.003,0.52089 z m 42.873,0.191 0.0351,-0.0868 -0.0351,-0.0868 -0.0351,-0.0868 v 0.17363 0.17364 z m -0.0642,-0.65981 0.0251,-0.39935 -0.0251,-0.39936 -0.0251,-0.39935 v 0.79871 0.79871 z m -0.0731,-1.3188 0.0316,-0.12073 -0.0302,-0.15708 -0.0302,-0.15708 -0.001,0.27781 -0.001,0.27782 z m -42.59636,-0.40016 0.0557,-0.31254 -0.004,-0.20836 -0.004,-0.20836 -0.0557,0.31254 -0.0557,0.31254 0.004,0.20836 0.004,0.20836 z m 42.52683,-0.15546 0.0316,-0.12073 -0.0302,-0.15708 -0.0302,-0.15708 -0.001,0.27781 -0.001,0.27781 z m -0.0695,-0.55562 0.0316,-0.12074 -0.0302,-0.15708 -0.0302,-0.15708 -0.001,0.27782 -10e-4,0.27781 z m -42.34355,-0.13891 0.0317,-0.12073 -0.0302,-0.15708 -0.0302,-0.15708 -0.001,0.27781 -10e-4,0.27781 z m 42.27186,-0.38148 0.0346,-0.0855 -0.032,-0.12287 -0.032,-0.12286 -0.003,0.20836 -0.003,0.20836 z m -42.20405,-0.14023 0.0351,-0.0868 -0.0351,-0.0868 -0.0351,-0.0868 v 0.17363 0.17364 z m 42.1365,-0.25011 0.0309,-0.0309 -0.0476,-0.25343 -0.0476,-0.25342 -0.0309,0.0309 -0.0309,0.0309 0.0476,0.25343 0.0476,0.25342 z m -42.06697,-0.0971 0.0351,-0.0868 -0.0351,-0.0868 -0.0351,-0.0868 v 0.17363 0.17363 z m 0.0655,-0.31399 0.042,-0.042 -0.0365,-0.0912 -0.0365,-0.0912 -0.005,0.13312 -0.005,0.13312 z m 41.86242,-0.21394 0.0309,-0.0309 -0.0476,-0.25342 -0.0476,-0.25342 -0.0309,0.0309 -0.0309,0.0309 0.0476,0.25342 0.0476,0.25342 z m -41.78885,-0.0971 0.0351,-0.0868 -0.0351,-0.0868 -0.0351,-0.0868 v 0.17363 0.17363 z m 0.0655,-0.31399 0.042,-0.042 -0.0365,-0.0912 -0.0365,-0.0912 -0.005,0.13312 -0.005,0.13312 z m 41.58726,-0.21689 0.0322,-0.0322 -0.048,-0.2183 -0.048,-0.21829 -0.0286,0.0286 -0.0286,0.0286 0.0444,0.22186 0.0444,0.22187 z m -41.49021,-0.18101 0.0557,-0.17364 0.002,-0.10418 0.002,-0.10418 -0.0598,0.13891 -0.0598,0.1389 0.002,0.13891 0.002,0.13891 z m 41.35132,-0.37479 0.0284,-0.0284 -0.0855,-0.28502 -0.0855,-0.28502 -0.0284,0.0284 -0.0284,0.0284 0.0855,0.28502 0.0855,0.28502 z m -41.23544,-0.0651 0.0463,-0.0463 -0.0463,-0.0463 -0.0463,-0.0463 v 0.0926 0.0926 z m 0.12747,-0.39356 0.0937,-0.24309 v -0.10418 -0.10418 l -0.0937,0.24309 -0.0937,0.24308 v 0.10418 0.10418 z m 40.89501,-0.23152 0.0464,-0.0463 -0.0464,-0.0463 -0.0463,-0.0463 v 0.0926 0.0926 z m -0.0695,-0.20836 0.0464,-0.0463 -0.0464,-0.0463 -0.0463,-0.0463 v 0.0926 0.0926 z m -40.67483,-0.0695 0.0463,-0.0463 -0.0463,-0.0463 -0.0463,-0.0463 v 0.0926 0.0926 z m 40.60531,-0.1389 0.0463,-0.0463 -0.0463,-0.0463 -0.0464,-0.0463 v 0.0926 0.0926 z m -40.53578,-0.0695 0.0464,-0.0463 -0.0464,-0.0463 -0.0463,-0.0463 v 0.0926 0.0926 z m 40.46507,-0.16523 0.0342,-0.0842 -0.0797,-0.12416 -0.0797,-0.12416 0.04,0.12722 0.04,0.12723 0.005,0.0811 0.005,0.0811 z m -40.37236,-0.12416 0.0598,-0.13891 0.004,-0.0694 0.004,-0.0694 -0.0674,0.10418 -0.0674,0.10418 0.004,0.10418 0.004,0.10418 z m 40.23785,-0.26961 0.0325,-0.0325 -0.0738,-0.12675 -0.0738,-0.12675 -0.002,0.0464 -0.002,0.0464 0.0434,0.11285 0.0434,0.11286 z m -40.06403,-0.18184 0.0994,-0.17363 v -0.0694 -0.0695 l -0.0994,0.17363 -0.0994,0.17364 v 0.0694 0.0695 z m 39.92497,-0.16543 0.0325,-0.0325 -0.0738,-0.12675 -0.0738,-0.12675 -0.002,0.0464 -0.002,0.0464 0.0434,0.11286 0.0434,0.11285 z m -39.75115,-0.25128 0.0674,-0.10419 v -0.0694 -0.0695 l -0.0674,0.10418 -0.0674,0.10418 v 0.0694 0.0694 z m 39.59713,-0.0695 h 0.0348 v -0.0347 -0.0347 h -0.0348 -0.0348 v 0.0347 0.0347 z m -0.0546,-0.16543 0.0326,-0.0325 -0.0738,-0.12675 -0.0738,-0.12676 -0.002,0.0464 -0.002,0.0464 0.0434,0.11286 0.0434,0.11286 z m -39.4035,-0.11239 0.0674,-0.10417 v -0.0694 -0.0694 l -0.0674,0.10417 -0.0674,0.10418 v 0.0694 0.0695 z m 39.26444,-0.23488 0.0326,-0.0325 -0.0738,-0.12675 -0.0738,-0.12675 -0.002,0.0464 -0.002,0.0464 0.0434,0.11285 0.0434,0.11286 z m -39.16014,-0.0429 h 0.0348 v -0.0347 -0.0347 h -0.0348 -0.0348 v 0.0347 0.0347 z m 0.0615,-0.14469 0.0267,-0.0289 0.3216,-0.64245 0.32161,-0.64244 h -0.0348 -0.0348 l -0.31359,0.62369 -0.31358,0.62369 v 0.0477 0.0477 z m 38.94462,-0.13312 h 0.0348 v -0.0347 -0.0347 h -0.0348 -0.0348 v 0.0347 0.0347 z m -0.0695,-0.13891 h 0.0348 v -0.0347 -0.0347 h -0.0348 -0.0348 v 0.0347 0.0347 z m -0.0695,-0.1389 h 0.0348 v -0.0347 -0.0347 h -0.0348 -0.0348 v 0.0347 0.0347 z m -0.0695,-0.13891 h 0.0348 v -0.0347 -0.0347 h -0.0348 -0.0348 v 0.0347 0.0347 z m -0.0695,-0.13891 h 0.0348 v -0.0347 -0.0347 h -0.0348 -0.0348 v 0.0347 0.0347 z m -0.0695,-0.1389 h 0.0348 v -0.0347 -0.0347 h -0.0348 -0.0348 v 0.0347 0.0347 z m -0.0678,-0.13891 h 0.0348 l -0.24511,-0.48617 -0.2451,-0.48617 h -0.0348 -0.0348 l 0.2451,0.48617 0.24511,0.48617 z m -37.82587,-0.41672 h 0.0348 v -0.0347 -0.0347 h -0.0348 -0.0348 v 0.0347 0.0347 z m 0.0695,-0.1389 h 0.0348 v -0.0347 -0.0347 h -0.0348 -0.0348 v 0.0347 0.0347 z m 0.0695,-0.13891 h 0.0348 v -0.0347 -0.0347 h -0.0348 -0.0348 v 0.0347 0.0347 z m 0.0646,-0.13891 h 0.0348 l 0.0744,-0.1389 0.0744,-0.13891 h -0.0348 -0.0348 l -0.0744,0.13891 -0.0744,0.1389 z m 37.06829,-0.20836 h 0.0307 v -0.0306 -0.0306 l -0.0803,-0.0496 -0.0803,-0.0496 0.0496,0.0802 0.0496,0.0802 z m -36.86301,-0.1389 h 0.0348 l 0.043,-0.0695 0.043,-0.0695 h -0.0348 -0.0348 l -0.043,0.0695 -0.043,0.0695 z m 36.7264,-0.0695 h 0.0331 l -0.0669,-0.12154 -0.0669,-0.12155 -0.11672,-0.1389 -0.11673,-0.13891 0.0993,0.17363 0.0993,0.17364 0.0512,0.0868 0.0512,0.0868 z m -36.50835,-0.24309 0.11322,-0.1389 0.0683,-0.13891 0.0683,-0.13891 -0.11323,0.13891 -0.11322,0.13891 -0.0683,0.1389 -0.0683,0.13891 z m 36.15825,-0.31253 h 0.0307 v -0.0306 -0.0306 l -0.0803,-0.0496 -0.0803,-0.0496 0.0496,0.0802 0.0496,0.0802 z m -35.8896,-0.13891 h 0.0348 l 0.043,-0.0694 0.043,-0.0694 h -0.0348 -0.0348 l -0.043,0.0694 -0.043,0.0694 z m 35.75961,-0.0694 h 0.0295 l -0.12561,-0.2137 -0.12561,-0.2137 -0.0987,-0.0815 -0.0987,-0.0815 0.19489,0.29517 0.19488,0.29518 z m -35.62278,-0.13896 h 0.0292 l 0.1195,-0.18219 0.11951,-0.18218 -0.0764,0.0472 -0.0764,0.0471 -0.0724,0.13504 -0.0724,0.13503 z m 0.28004,-0.41672 h 0.0263 l 0.0954,-0.12155 0.0954,-0.12154 -0.12168,0.0953 -0.12168,0.0953 v 0.0262 0.0262 z m 34.9209,-0.0695 h 0.0263 v -0.0262 -0.0262 l -0.12167,-0.0953 -0.12168,-0.0953 0.0954,0.12154 0.0954,0.12154 z m -34.71231,-0.20836 h 0.0263 l 0.0954,-0.12154 0.0954,-0.12155 -0.12167,0.0953 -0.12168,0.0953 v 0.0262 0.0262 z m 34.50373,-0.0694 h 0.0263 v -0.0262 -0.0262 l -0.12168,-0.0953 -0.12167,-0.0953 0.0954,0.12154 0.0954,0.12154 z m -34.29683,-0.20836 h 0.0334 l 0.45165,-0.57299 0.45165,-0.57299 0.75351,-0.77151 0.7535,-0.77151 0.55624,-0.5083 0.55624,-0.5083 -0.31152,0.23801 -0.31152,0.23802 -1.04431,1.04618 -1.04431,1.04617 -0.439,0.56861 -0.43899,0.56861 z m 34.09141,-0.0694 h 0.0348 l -0.22027,-0.27781 -0.22027,-0.27782 h -0.0348 -0.0348 l 0.22027,0.27782 0.22027,0.27781 z m -0.48539,-0.62508 h 0.0218 v -0.0217 -0.0217 l -0.22597,-0.20399 -0.22597,-0.20399 0.20421,0.22572 0.20422,0.22573 z m -0.41517,-0.48617 h 0.0197 v -0.0197 -0.0197 l -0.39979,-0.37962 -0.3998,-0.37962 0.38004,0.39935 0.38004,0.39936 z m -0.76683,-0.83344 h 0.0218 v -0.0217 -0.0217 l -0.22597,-0.20399 -0.22598,-0.20399 0.20422,0.22572 0.20421,0.22573 z m -0.48471,-0.41672 h 0.0198 v -0.0197 -0.0197 l -0.3998,-0.37962 -0.39979,-0.37962 0.38004,0.39936 0.38003,0.39936 z m -0.83635,-0.76398 h 0.0217 v -0.0217 -0.0217 l -0.22597,-0.20399 -0.22597,-0.20399 0.20422,0.22572 0.20421,0.22572 z m -0.48234,-0.41775 0.0174,10e-4 v -0.0289 -0.0289 l -0.2955,-0.22078 -0.2955,-0.22077 0.27811,0.24863 0.27812,0.24863 z m -26.75152,-0.27678 0.27812,-0.22003 v -0.0347 -0.0347 l -0.27812,0.22003 -0.27812,0.22003 v 0.0347 0.0347 z m 26.11689,-0.20836 h 0.0263 v -0.0262 -0.0262 l -0.12168,-0.0953 -0.12167,-0.0953 0.0954,0.12154 0.0954,0.12154 z m -25.74299,-0.0694 h 0.0262 l 0.0954,-0.12154 0.0954,-0.12155 -0.12167,0.0953 -0.12168,0.0953 v 0.0262 0.0262 z m 25.49112,-0.14648 0.0348,0.002 -0.22069,-0.18818 -0.22068,-0.18817 -0.23126,-0.12457 -0.23126,-0.12457 0.16997,0.12457 0.16997,0.12457 0.24721,0.18624 0.24721,0.18624 z m -25.04805,-0.20057 0.22597,-0.16524 v -0.0241 -0.0241 l -0.12739,0.0681 -0.1274,0.0681 -0.0986,0.12125 -0.0986,0.12124 z m 0.32206,-0.20857 h 0.0348 l 0.043,-0.0695 0.043,-0.0694 h -0.0348 -0.0348 l -0.043,0.0694 -0.043,0.0695 z m 0.28633,-0.19944 0.13906,-0.0682 0.13906,-0.1131 0.13905,-0.11311 -0.13905,0.0682 -0.13906,0.0682 -0.13906,0.1131 -0.13906,0.1131 z m 23.50512,-0.009 h 0.0307 v -0.0306 -0.0306 l -0.0803,-0.0496 -0.0803,-0.0496 0.0496,0.0802 0.0496,0.0802 z m -0.17793,-0.14229 0.0348,-0.001 -0.13906,-0.10706 -0.13906,-0.10706 -0.12167,-0.0668 -0.12168,-0.0668 v 0.0303 0.0303 l 0.22597,0.14456 0.22597,0.14456 z m -22.84869,-0.13553 h 0.0348 l 0.043,-0.0695 0.043,-0.0694 h -0.0348 -0.0348 l -0.043,0.0694 -0.043,0.0695 z m 0.42538,-0.28295 0.27812,-0.156 0.0695,-0.0663 0.0695,-0.0663 -0.20859,0.10683 -0.20859,0.10682 -0.13906,0.11544 -0.13906,0.11545 z m 21.83641,0.0746 h 0.0307 v -0.0306 -0.0306 l -0.0803,-0.0496 -0.0803,-0.0495 0.0496,0.0802 0.0496,0.0802 z m -0.21269,-0.1389 h 0.0348 v -0.0347 -0.0347 h -0.0348 -0.0348 v 0.0347 0.0347 z m -0.12168,-0.0725 0.0174,0.003 v -0.0333 -0.0333 l -0.27812,-0.14173 -0.27811,-0.14173 v 0.0345 0.0345 l 0.26073,0.13749 0.26074,0.1375 z m -21.01533,-0.13584 h 0.0348 v -0.0347 -0.0347 h -0.0348 -0.0348 v 0.0347 0.0347 z m 0.13906,-0.0695 h 0.0348 v -0.0347 -0.0347 h -0.0348 -0.0348 v 0.0347 0.0347 z m 0.13906,-0.0694 h 0.0348 v -0.0347 -0.0347 h -0.0348 -0.0348 v 0.0347 0.0347 z m 0.13906,-0.0694 h 0.0348 v -0.0347 -0.0347 h -0.0348 -0.0348 v 0.0347 0.0347 z m 19.955,0 h 0.0348 v -0.0347 -0.0347 h -0.0348 -0.0348 v 0.0347 0.0347 z m -19.33168,-0.32712 0.51902,-0.25654 -0.0252,-0.0252 -0.0252,-0.0252 -0.49384,0.24842 -0.49383,0.24841 v 0.0333 0.0333 z m 19.19262,0.25767 h 0.0348 v -0.0347 -0.0347 h -0.0348 -0.0348 v 0.0347 0.0347 z m -0.13906,-0.0694 h 0.0348 v -0.0347 -0.0347 h -0.0348 -0.0348 v 0.0347 0.0347 z m -0.13906,-0.0694 h 0.0348 v -0.0347 -0.0347 h -0.0348 -0.0348 v 0.0347 0.0347 z m -0.13906,-0.0695 h 0.0348 v -0.0347 -0.0347 h -0.0348 -0.0348 v 0.0347 0.0347 z m -0.10429,-0.0741 0.0348,2.5e-4 -0.13496,-0.10197 -0.13497,-0.10197 -0.0736,0.002 -0.0736,0.002 0.17382,0.0993 0.17382,0.0993 z m -0.45194,-0.20582 h 0.0695 l -0.1043,-0.0673 -0.10429,-0.0673 h -0.0695 -0.0695 l 0.10429,0.0673 0.1043,0.0673 z m -17.591,-0.0695 h 0.0695 l 0.10429,-0.0673 0.1043,-0.0673 h -0.0695 -0.0695 l -0.10429,0.0673 -0.1043,0.0673 z m 17.24335,-0.0673 h 0.0348 v -0.0347 -0.0347 h -0.0348 -0.0348 v 0.0347 0.0347 z m -16.8957,-0.0744 h 0.0695 l 0.17382,-0.0993 0.17383,-0.0993 h -0.0695 -0.0695 l -0.17383,0.0993 -0.17382,0.0993 z m 16.75664,0.003 h 0.0695 l -0.1043,-0.0673 -0.10429,-0.0673 h -0.0695 -0.0695 l 0.1043,0.0673 0.10429,0.0673 z m -0.34765,-0.1389 h 0.0695 l -0.10429,-0.0673 -0.1043,-0.0673 h -0.0695 -0.0695 l 0.1043,0.0673 0.10429,0.0673 z m -15.92228,-0.0695 h 0.0695 l 0.10429,-0.0673 0.10429,-0.0673 h -0.0695 -0.0695 l -0.1043,0.0673 -0.10429,0.0673 z m 15.57463,-0.0673 h 0.0348 v -0.0347 -0.0347 h -0.0348 -0.0348 v 0.0347 0.0347 z m -15.12269,-0.10927 0.17382,-0.0464 0.1043,-0.0644 0.10429,-0.0644 -0.17382,0.0464 -0.17383,0.0464 -0.10429,0.0644 -0.1043,0.0644 z m 14.96625,0.0344 0.0522,0.005 v -0.0283 -0.0284 l -0.43068,-0.14528 -0.43068,-0.14528 -0.0734,0.005 -0.0734,0.005 0.45194,0.16278 0.45194,0.16279 z m -14.47954,-0.2137 h 0.10429 l 0.34765,-0.12814 0.34765,-0.12814 h -0.1043 -0.10429 l -0.34765,0.12814 -0.34765,0.12814 z m 13.41921,-0.12814 h 0.0927 l -0.0464,-0.0463 -0.0464,-0.0463 -0.0463,0.0463 -0.0464,0.0463 z m -0.20858,-0.0694 h 0.0927 l -0.0463,-0.0463 -0.0464,-0.0463 -0.0464,0.0463 -0.0463,0.0463 z m -12.30675,-0.0695 h 0.0927 l -0.0464,-0.0463 -0.0464,-0.0463 -0.0463,0.0463 -0.0464,0.0463 z m 12.09816,-0.0106 h 0.10429 l -0.24335,-0.0936 -0.24336,-0.0936 h -0.10429 -0.10429 l 0.24335,0.0936 0.24335,0.0936 z m -11.88964,-0.0589 h 0.0927 l -0.0464,-0.0463 -0.0463,-0.0463 -0.0464,0.0463 -0.0464,0.0463 z m 0.23756,-0.0749 0.13326,0.005 -0.042,-0.042 -0.042,-0.042 -0.0913,0.0365 -0.0913,0.0365 z m 0.27812,-0.0694 0.13326,0.005 -0.042,-0.042 -0.042,-0.042 -0.0913,0.0365 -0.0913,0.0365 z m 10.64383,-0.008 h 0.13906 l -0.17383,-0.0556 -0.17382,-0.0556 h -0.13906 -0.13906 l 0.17382,0.0556 0.17383,0.0556 z m -10.32515,-0.0666 h 0.17382 l -0.0869,-0.035 -0.0869,-0.035 -0.0869,0.035 -0.0869,0.035 z m 0.30708,-0.064 0.13327,0.006 -0.042,-0.042 -0.042,-0.042 -0.0913,0.0365 -0.0913,0.0365 z m 9.3923,-0.008 h 0.13906 l -0.17383,-0.0556 -0.17382,-0.0556 h -0.13906 -0.13906 l 0.17383,0.0556 0.17382,0.0556 z m -9.07362,-0.0666 h 0.17383 l -0.0869,-0.035 -0.0869,-0.035 -0.0869,0.035 -0.0869,0.035 z m 0.30709,-0.064 0.13327,0.005 -0.042,-0.042 -0.042,-0.042 -0.0913,0.0365 -0.0913,0.0365 z m 8.14076,-0.01 0.13906,0.003 -0.2078,-0.0619 -0.2078,-0.0619 -0.41797,-0.0335 -0.41796,-0.0335 0.48671,0.092 0.4867,0.092 z m -7.78732,-0.0676 0.20859,0.003 -0.0856,-0.0346 -0.0856,-0.0346 -0.123,0.032 -0.123,0.032 z m 0.48671,-0.0734 0.27812,10e-4 -0.12087,-0.0316 -0.12086,-0.0316 -0.15725,0.0302 -0.15726,0.0302 z m 0.52147,-0.068 h 0.24336 l -0.12168,-0.0318 -0.12168,-0.0318 -0.12167,0.0318 -0.12168,0.0318 z m 5.38855,-0.001 0.27812,0.001 -0.12087,-0.0316 -0.12086,-0.0316 -0.15726,0.0302 -0.15725,0.0302 z m -4.86707,-0.0695 0.27811,0.001 -0.12086,-0.0316 -0.12087,-0.0316 -0.15725,0.0302 -0.15725,0.0302 z m 4.31083,0 0.27812,0.001 -0.12086,-0.0316 -0.12087,-0.0316 -0.15725,0.0302 -0.15726,0.0302 z m -3.23312,-0.0777 h 0.73006 l -0.36503,-0.0255 -0.36503,-0.0255 -0.36504,0.0255 -0.36503,0.0255 z m 2.19018,3.4e-4 0.69529,3.4e-4 -0.32793,-0.0259 -0.32794,-0.0259 -0.36736,0.0256 -0.36736,0.0256 z m -1.07771,-0.0649 h 0.38241 l -0.1912,-0.0289 -0.19121,-0.0289 -0.19121,0.0289 -0.1912,0.0289 z m 46.112544,64.01329 0.46634,-0.0366 0.19419,-0.0583 0.1942,-0.0583 -0.1043,-7.9e-4 -0.10429,-7.9e-4 -0.55624,0.0956 -0.55624,0.0956 z m -92.529364,-0.0331 0.20279,0.007 -0.029,-0.0258 -0.029,-0.0258 -0.34765,-0.0401 -0.34765,-0.0401 0.17383,0.059 0.17382,0.059 z m -0.72427,-0.14295 h 0.17382 l -0.0869,-0.035 -0.0869,-0.035 -0.0869,0.035 -0.0869,0.035 z m 94.247414,-0.003 h 0.13906 l 0.17383,-0.0556 0.17382,-0.0556 h -0.13906 -0.13906 l -0.17382,0.0556 -0.17382,0.0556 z m -94.566094,-0.0611 0.13327,0.005 -0.042,-0.042 -0.042,-0.042 -0.0913,0.0365 -0.0913,0.0365 z m -0.30709,-0.0749 h 0.17383 l -0.0869,-0.035 -0.0869,-0.035 -0.0869,0.035 -0.0869,0.035 z m 95.498954,-0.003 h 0.13906 l 0.17382,-0.0556 0.17383,-0.0556 h -0.13906 -0.13906 l -0.17383,0.0556 -0.17382,0.0556 z m -95.817624,-0.0611 0.13326,0.005 -0.042,-0.042 -0.042,-0.042 -0.0913,0.0365 -0.0913,0.0365 z m -0.27812,-0.0695 0.13326,0.005 -0.042,-0.042 -0.042,-0.042 -0.0913,0.0365 -0.0913,0.0365 z m 96.686744,0.005 h 0.0927 l -0.0464,-0.0463 -0.0464,-0.0463 -0.0463,0.0463 -0.0464,0.0463 z m -96.924304,-0.08 h 0.10429 l -0.24335,-0.0936 -0.24336,-0.0936 h -0.10429 -0.1043 l 0.24336,0.0936 0.24335,0.0936 z m 97.202424,0.0106 h 0.0927 l -0.0464,-0.0463 -0.0464,-0.0463 -0.0463,0.0463 -0.0464,0.0463 z m 0.20859,-0.08 h 0.10429 l 0.24336,-0.0936 0.24335,-0.0936 h -0.10429 -0.1043 l -0.24335,0.0936 -0.24335,0.0936 z m -98.106314,-0.12834 h 0.0927 l -0.0463,-0.0463 -0.0464,-0.0463 -0.0463,0.0463 -0.0464,0.0463 z m -0.20859,-0.0694 h 0.0927 l -0.0464,-0.0463 -0.0464,-0.0463 -0.0463,0.0463 -0.0464,0.0463 z m 99.010204,0 h 0.0927 l -0.0464,-0.0463 -0.0464,-0.0463 -0.0464,0.0463 -0.0464,0.0463 z m -99.218794,-0.08 0.1043,5.2e-4 -0.37684,-0.13361 -0.37684,-0.13361 -0.0273,0.0273 -0.0273,0.0273 0.29984,0.10593 0.29985,0.10593 z m 99.427384,0.0106 h 0.0927 l -0.0464,-0.0463 -0.0464,-0.0463 -0.0464,0.0463 -0.0464,0.0463 z m 0.20858,-0.0695 h 0.0927 l -0.0463,-0.0463 -0.0464,-0.0463 -0.0464,0.0463 -0.0463,0.0463 z m 0.27812,-0.10927 0.17383,-0.0464 0.10429,-0.0644 0.1043,-0.0644 -0.17383,0.0464 -0.17382,0.0464 -0.1043,0.0644 -0.10429,0.0644 z M 21.131856,274.44711 h 0.0695 l -0.17382,-0.0993 -0.17383,-0.0993 h -0.0695 -0.0695 l 0.17383,0.0993 0.17382,0.0993 z m 101.165614,-0.0667 h 0.0695 l 0.10429,-0.0673 0.10429,-0.0673 h -0.0695 -0.0695 l -0.10429,0.0673 -0.10429,0.0673 z M 20.645156,274.24154 h 0.0695 l -0.10429,-0.0673 -0.10429,-0.0673 h -0.0695 -0.0695 l 0.10429,0.0673 0.10429,0.0673 z m 101.999964,-0.003 h 0.0695 l 0.17383,-0.0993 0.17382,-0.0993 h -0.0695 -0.0695 l -0.17382,0.0993 -0.17383,0.0993 z M 20.297506,274.1027 h 0.0695 l -0.1043,-0.0673 -0.10429,-0.0673 h -0.0695 -0.0695 l 0.10429,0.0673 0.1043,0.0673 z m 102.834324,-0.0695 h 0.0695 l 0.10429,-0.0673 0.1043,-0.0673 h -0.0695 -0.0695 l -0.1043,0.0673 -0.10429,0.0673 z M 19.949856,273.9659 h 0.0348 v -0.0347 -0.0347 h -0.0348 -0.0348 v 0.0347 0.0347 z m -0.13906,-0.0695 h 0.0348 v -0.0347 -0.0347 h -0.0348 -0.0348 v 0.0347 0.0347 z m 103.826844,-0.0744 0.22451,-0.0782 0.0391,-0.0631 0.0391,-0.0631 -0.19564,0.0832 -0.19563,0.0832 -0.0679,0.0582 -0.068,0.0582 z m -103.971694,0.002 0.0637,0.003 -0.029,-0.0264 -0.029,-0.0264 -0.36503,-0.18316 -0.36503,-0.18316 v 0.0346 0.0346 l 0.33027,0.17173 0.33026,0.17173 z m 104.369774,-0.20513 h 0.0348 v -0.0347 -0.0347 h -0.0348 -0.0348 v 0.0347 0.0347 z m 0.13905,-0.0695 h 0.0348 v -0.0347 -0.0347 h -0.0348 -0.0348 v 0.0347 0.0347 z m 0.13906,-0.0695 h 0.0348 v -0.0347 -0.0347 h -0.0348 -0.0348 v 0.0347 0.0347 z m -105.476454,-0.0695 h 0.0348 v -0.0347 -0.0347 h -0.0348 -0.0348 v 0.0347 0.0347 z m 106.119604,-0.27536 0.53886,-0.28239 0.17382,-0.14538 0.17383,-0.14539 -0.24336,0.14928 -0.24335,0.14927 -0.46933,0.24113 -0.46932,0.24113 v 0.0374 0.0374 z m -106.258664,0.20591 h 0.0348 v -0.0347 -0.0347 h -0.0348 -0.0348 v 0.0347 0.0347 z m -0.13905,-0.0695 h 0.0348 v -0.0347 -0.0347 h -0.0348 -0.0348 v 0.0347 0.0347 z m -0.13906,-0.0695 h 0.0348 v -0.0347 -0.0347 h -0.0348 -0.0348 v 0.0347 0.0347 z m -0.12168,-0.0722 0.0174,0.003 v -0.0329 -0.0329 l -0.20859,-0.10775 -0.20859,-0.10775 v 0.0343 0.0343 l 0.19121,0.10362 0.19121,0.10362 z m -0.49999,-0.27503 h 0.0307 v -0.0306 -0.0306 l -0.0803,-0.0496 -0.0803,-0.0496 0.0496,0.0802 0.0496,0.0802 z m -0.17792,-0.14229 0.0348,-10e-4 -0.13906,-0.10706 -0.13906,-0.10706 -0.12167,-0.0668 -0.12168,-0.0668 v 0.0303 0.0303 l 0.22597,0.14456 0.22597,0.14455 z m 108.436054,-0.24134 0.21318,-0.1174 0.16923,-0.13727 0.16923,-0.13727 -0.21318,0.1174 -0.21318,0.1174 -0.16923,0.13727 -0.16923,0.13727 z M 17.033716,272.36862 h 0.0307 v -0.0306 -0.0306 l -0.0803,-0.0496 -0.0803,-0.0496 0.0496,0.0802 0.0496,0.0802 z m -0.19655,-0.13891 h 0.0186 v -0.0255 -0.0255 l -0.27812,-0.18385 -0.27812,-0.18384 v 0.0332 0.0332 l 0.2595,0.17613 0.25949,0.17614 z m 109.832464,-0.1389 h 0.0348 l 0.043,-0.0695 0.043,-0.0694 h -0.0348 -0.0348 l -0.043,0.0694 -0.043,0.0695 z m 0.20828,-0.13891 h 0.0263 l 0.0954,-0.12154 0.0954,-0.12155 -0.12167,0.0953 -0.12168,0.0953 v 0.0262 0.0262 z m -110.665274,-0.14248 0.0174,0.004 v -0.0307 -0.0307 l -0.43456,-0.3274 -0.43456,-0.32739 0.1043,0.11048 0.10429,0.11048 0.31289,0.24401 0.31288,0.24401 z m 110.943394,-0.0659 h 0.0263 l 0.0954,-0.12154 0.0954,-0.12155 -0.12168,0.0953 -0.12167,0.0953 v 0.0262 0.0262 z m 0.52999,-0.41672 0.27812,-0.22003 v -0.0347 -0.0347 l -0.27812,0.22003 -0.27812,0.22003 v 0.0347 0.0347 z M 15.299886,271.11846 h 0.0263 v -0.0262 -0.0262 l -0.12168,-0.0953 -0.12167,-0.0953 0.0954,0.12154 0.0954,0.12155 z m 112.977134,-0.26001 0.27812,-0.21437 0.27812,-0.29937 0.27812,-0.29936 -0.45195,0.40985 -0.45194,0.40985 -0.10429,0.10389 -0.1043,0.10389 z m -113.234814,0.0516 h 0.0348 l -0.30707,-0.31253 -0.30707,-0.31254 h -0.0348 -0.0348 l 0.30707,0.31254 0.30707,0.31253 z m -0.70805,-0.62507 h 0.0186 v -0.0186 -0.0186 l -0.78221,-0.7628 -0.78221,-0.7628 0.76364,0.78135 0.76364,0.78134 z m 115.013424,-0.382 0.22893,-0.20836 0.69645,-0.74662 0.69645,-0.74662 h -0.0305 -0.0305 l -0.89488,0.95498 -0.89488,0.95498 z M 12.802416,268.6876 h 0.0206 v -0.0206 -0.0206 l -0.2955,-0.27454 -0.2955,-0.27454 0.27485,0.29517 0.27485,0.29518 z m 118.178134,-0.55562 h 0.0348 l 0.32101,-0.41672 0.32101,-0.41672 h -0.0348 -0.0348 l -0.32101,0.41672 -0.32101,0.41672 z m -118.736794,-0.0695 h 0.0348 l -0.22027,-0.27781 -0.22028,-0.27781 h -0.0348 -0.0348 l 0.22028,0.27781 0.22027,0.27781 z m -0.48988,-0.62508 h 0.0262 v -0.0262 -0.0262 l -0.12168,-0.0953 -0.12167,-0.0953 0.0954,0.12155 0.0954,0.12154 z m 120.102484,-0.41672 0.21972,-0.24308 0.0732,-0.13891 0.0732,-0.1389 -0.0657,0.0695 -0.0657,0.0695 -0.22725,0.31253 -0.22723,0.31255 z m -120.305274,0.13891 h 0.0275 l -0.18561,-0.24308 -0.18561,-0.24309 h -0.035 -0.035 l 0.0923,0.12154 0.0923,0.12155 0.10079,0.12154 0.10079,0.12154 z m -0.42739,-0.55562 h 0.0307 v -0.0306 -0.0306 l -0.0803,-0.0496 -0.0803,-0.0496 0.0496,0.0802 0.0496,0.0802 z M 132.232,266.4651 h 0.0348 l 0.043,-0.0695 0.043,-0.0695 h -0.0348 -0.0348 l -0.043,0.0695 -0.043,0.0695 z M 10.987086,266.3955 h 0.0331 l -0.0669,-0.12154 -0.0669,-0.12154 -0.11672,-0.13891 -0.11673,-0.13891 0.0993,0.17364 0.0993,0.17363 0.0512,0.0868 0.0512,0.0868 z m 121.462974,-0.24308 0.11322,-0.13891 0.0683,-0.13891 0.0683,-0.1389 -0.11322,0.1389 -0.11323,0.13891 -0.0683,0.13891 -0.0683,0.1389 z M 10.636986,265.83989 h 0.0307 v -0.0306 -0.0306 l -0.0803,-0.0496 -0.0803,-0.0496 0.0496,0.0802 0.0496,0.0802 z m 122.081724,-0.13891 h 0.0348 l 0.043,-0.0695 0.043,-0.0695 h -0.0348 -0.0348 l -0.043,0.0695 -0.043,0.0695 z m -122.218334,-0.0695 h 0.0331 l -0.0669,-0.12155 -0.0669,-0.12154 -0.11672,-0.13891 -0.11672,-0.1389 0.0993,0.17363 0.0993,0.17363 0.0512,0.0868 0.0512,0.0868 z m 122.360704,-0.13891 h 0.0348 l 0.0744,-0.13891 0.0744,-0.1389 h -0.0348 -0.0348 l -0.0744,0.1389 -0.0744,0.13891 z m 0.20991,-0.34727 h 0.0348 l 0.10787,-0.20836 0.10787,-0.20836 h -0.0348 -0.0348 l -0.10787,0.20836 -0.10787,0.20836 z M 10.147726,265.0759 h 0.0348 l -0.2796699,-0.55562 -0.27967,-0.55563 h -0.0348 -0.0348 l 0.27967,0.55563 0.2796699,0.55562 z m 123.204954,-0.41672 h 0.0348 v -0.0347 -0.0347 h -0.0348 -0.0348 v 0.0347 0.0347 z m 0.0695,-0.1389 h 0.0348 v -0.0347 -0.0347 h -0.0348 -0.0348 v 0.0347 0.0347 z m 0.0695,-0.13891 h 0.0348 v -0.0347 -0.0347 h -0.0348 -0.0348 v 0.0347 0.0347 z m 0.0692,-0.1389 h 0.0333 l 0.24869,-0.49329 0.24869,-0.49329 -0.0252,-0.0252 -0.0252,-0.0252 -0.25682,0.51845 -0.25682,0.51845 z M 9.5204061,263.8952 h 0.0348 v -0.0347 -0.0347 h -0.0348 -0.0348 v 0.0347 0.0347 z m -0.0695,-0.13891 h 0.0348 v -0.0347 -0.0347 h -0.0348 -0.0348 v 0.0347 0.0347 z m -0.0695,-0.1389 h 0.0348 v -0.0347 -0.0347 h -0.0348 -0.0348 v 0.0347 0.0347 z m -0.1241,-0.30434 0.0325,-0.0325 -0.0738,-0.12675 -0.0738,-0.12675 -0.002,0.0464 -0.002,0.0464 0.0434,0.11285 0.0434,0.11286 z m 124.8950139,-0.25129 0.0674,-0.10418 v -0.0695 -0.0695 l -0.0674,0.10418 -0.0674,0.10418 v 0.0695 0.0694 z m -125.0323039,-0.0978 0.0289,-0.0289 -0.10695,-0.19714 -0.10695,-0.19713 -0.003,0.0488 -0.003,0.0488 0.0808,0.17719 0.0808,0.1772 z m 125.1713639,-0.24952 0.0674,-0.10418 v -0.0695 -0.0695 l -0.0674,0.10418 -0.0674,0.10418 v 0.0694 0.0695 z m -125.3817239,-0.23488 0.0326,-0.0325 -0.0738,-0.12675 -0.0738,-0.12676 -0.002,0.0464 -0.002,0.0464 0.0434,0.11286 0.0434,0.11286 z m 125.4860139,-0.0429 h 0.0348 v -0.0347 -0.0347 h -0.0348 -0.0348 v 0.0347 0.0347 z m 0.1043,-0.20836 0.0674,-0.10418 v -0.0695 -0.0695 l -0.0674,0.10418 -0.0674,0.10418 v 0.0695 0.0694 z m -125.7293739,-0.096 0.0326,-0.0325 -0.0738,-0.12676 -0.0738,-0.12675 -0.002,0.0464 -0.002,0.0464 0.0434,0.11286 0.0434,0.11285 z m 125.8684339,-0.25129 0.0674,-0.10418 v -0.0694 -0.0695 l -0.0674,0.10418 -0.0674,0.10418 v 0.0694 0.0695 z m -126.0141439,-0.0893 0.027,-0.027 -0.0997,-0.27175 -0.0997,-0.27175 -0.005,0.0764 -0.005,0.0765 0.0776,0.22227 0.0776,0.22227 z m 126.1879639,-0.39684 0.0937,-0.24308 v -0.10418 -0.10418 l -0.0937,0.24308 -0.0937,0.24309 v 0.10418 0.10418 z m -126.3932739,-0.23151 0.0463,-0.0463 -0.0463,-0.0463 -0.0464,-0.0463 v 0.0926 0.0926 z m -0.0695,-0.20835 0.0464,-0.0463 -0.0464,-0.0463 -0.0463,-0.0463 v 0.0926 0.0926 z m 126.6134539,-0.0695 0.0464,-0.0463 -0.0464,-0.0463 -0.0463,-0.0463 v 0.0926 0.0926 z m -126.6829839,-0.1389 0.0463,-0.0463 -0.0463,-0.0463 -0.0464,-0.0463 v 0.0926 0.0926 z m 126.7525139,-0.0695 0.0463,-0.0463 -0.0463,-0.0463 -0.0464,-0.0463 v 0.0926 0.0926 z m -126.8176739,-0.14328 0.0284,-0.0284 -0.0855,-0.28502 -0.0855,-0.28502 -0.0284,0.0284 -0.0284,0.0284 0.0855,0.28502 0.0855,0.28502 z m 126.8872039,-0.0651 0.0464,-0.0463 -0.0464,-0.0463 -0.0463,-0.0463 v 0.0926 0.0926 z m 0.0927,-0.28938 0.0598,-0.13891 v -0.10418 -0.10418 l -0.0598,0.13891 -0.0598,0.1389 v 0.10418 0.10418 z m -127.1916339,-0.33694 0.0309,-0.0309 -0.0476,-0.25342 -0.0476,-0.25342 -0.0309,0.0309 -0.0309,0.0309 0.0476,0.25342 0.0476,0.25342 z m 127.3306939,-0.18396 0.0557,-0.17364 v -0.1389 -0.13891 l -0.0557,0.17363 -0.0557,0.17364 v 0.1389 0.13891 z m -127.4697539,-0.44111 0.0309,-0.0309 -0.0476,-0.25343 -0.0476,-0.25342 -0.0309,0.0309 -0.0309,0.0309 0.0476,0.25342 0.0476,0.25343 z m 127.5853339,-0.0971 0.0351,-0.0868 -0.0351,-0.0868 -0.0351,-0.0868 v 0.17363 0.17363 z m 0.0655,-0.31399 0.042,-0.042 -0.0365,-0.0912 -0.0365,-0.0912 -0.005,0.13312 -0.006,0.13312 z m -127.7935039,-0.21032 0.0302,-0.0301 -0.0463,-0.28942 -0.0463,-0.28941 -0.0324,0.0324 -0.0324,0.0324 0.0486,0.28718 0.0486,0.28717 z M 135.589,258.49522 l 0.0351,-0.0868 -0.0351,-0.0868 -0.0351,-0.0868 v 0.17363 0.17363 z m 0.0695,-0.41672 0.0351,-0.0868 -0.0351,-0.0868 -0.0351,-0.0868 v 0.17363 0.17364 z m -128.0703139,-0.18239 0.0324,-0.0324 -0.0493,-0.46005 -0.0493,-0.46006 -0.0324,0.0324 -0.0324,0.0324 0.0493,0.46006 0.0493,0.46005 z m 128.1668739,-0.3906 0.0557,-0.31254 -0.003,-0.20836 -0.004,-0.20836 -0.0557,0.31254 -0.0557,0.31254 0.004,0.20836 0.004,0.20836 z m -128.3074839,-0.71109 0.0316,-0.12073 -0.0302,-0.15708 -0.0302,-0.15708 -10e-4,0.27782 -0.001,0.27781 z m 128.4225339,-0.17444 0.0301,-0.15627 -0.0301,-0.15626 -0.0301,-0.15628 v 0.31254 0.31254 z m -128.4889339,-0.88552 0.0233,-0.48618 -0.0696,-0.38199 -0.0696,-0.38199 0.0319,0.38199 0.0319,0.38199 0.0144,0.48618 0.0144,0.48617 z m 128.5607739,0.0173 0.0251,-0.39936 -0.0251,-0.39936 -0.0251,-0.39935 v 0.79871 0.79871 z M 7.2955461,254.44956 h 0.0348 v -0.0347 -0.0347 h -0.0348 -0.0348 v 0.0347 0.0347 z m 0.0156,-1.52797 0.0186,-1.42379 0.0177,-20.87066 0.0177,-20.87066 -0.044,0.69453 -0.044,0.69453 0.008,21.59992 0.008,21.59992 z m 128.7011439,-9.25462 0.0178,-10.67842 -0.0178,-10.67842 -0.0178,-10.67841 v 21.35684 21.35684 z m -0.0869,-32.06997 h 0.0348 v -0.0347 -0.0347 h -0.0348 -0.0348 v 0.0347 0.0347 z m 0.0164,-0.60518 0.0254,-0.36209 -0.0251,-0.40189 -0.0252,-0.40189 -2.6e-4,0.76398 -2.6e-4,0.76399 z m -0.0716,-1.32214 0.0301,-0.15627 -0.0301,-0.15627 -0.0301,-0.15627 v 0.31254 0.31254 z m -128.4225239,-0.17282 0.0316,-0.12074 -0.0302,-0.15708 -0.0302,-0.15708 -10e-4,0.27782 -0.001,0.27781 z m 128.3516939,-0.41672 0.0316,-0.12074 -0.0302,-0.15708 -0.0302,-0.15707 -10e-4,0.27781 -0.001,0.27781 z m -128.2568539,-0.33072 0.0557,-0.31253 -0.004,-0.20836 -0.004,-0.20836 -0.0557,0.31254 -0.0557,0.31254 0.004,0.20835 0.004,0.20836 z m 128.1874839,-0.22572 0.0318,-0.12154 -0.0318,-0.12154 -0.0318,-0.12155 v 0.24309 0.24309 z m -0.0714,-0.45144 0.0351,-0.0868 -0.0351,-0.0868 -0.0351,-0.0868 v 0.17363 0.17363 z m -127.9805639,-0.26045 0.0531,-0.20836 0.001,-0.13891 10e-4,-0.1389 -0.0557,0.17363 -0.0557,0.17363 0.001,0.17363 10e-4,0.17364 z m 127.9110339,-0.15627 0.0351,-0.0868 -0.0351,-0.0868 -0.0351,-0.0868 v 0.17363 0.17363 z m -0.0736,-0.31399 0.042,-0.042 -0.0365,-0.0912 -0.0365,-0.0912 -0.005,0.13312 -0.006,0.13312 z M 7.8170361,207.152 l 0.0557,-0.17363 v -0.13891 -0.1389 l -0.0557,0.17363 -0.0557,0.17363 v 0.13891 0.13891 z m 127.6287739,-0.15771 0.042,-0.042 -0.0365,-0.0912 -0.0365,-0.0912 -0.006,0.13311 -0.005,0.13312 z m -0.0655,-0.3111 0.0351,-0.0868 -0.0351,-0.0868 -0.0351,-0.0868 v 0.17364 0.17363 z m -127.4243239,-0.15626 0.0557,-0.17364 v -0.1389 -0.13891 l -0.0557,0.17363 -0.0557,0.17364 v 0.1389 0.13891 z m 127.3507539,-0.15772 0.042,-0.042 -0.0365,-0.0912 -0.0365,-0.0912 -0.006,0.13312 -0.005,0.13312 z m -0.0695,-0.27781 0.042,-0.042 -0.0365,-0.0912 -0.0365,-0.0912 -0.005,0.13312 -0.006,0.13311 z m -127.1074039,-0.25901 0.0937,-0.24308 v -0.10418 -0.10418 l -0.0937,0.24308 -0.0937,0.24309 v 0.10418 0.10418 z m 127.0422239,-0.0232 0.0463,-0.0463 -0.0463,-0.0463 -0.0464,-0.0463 v 0.0926 0.0926 z m -0.0695,-0.20836 0.0464,-0.0463 -0.0464,-0.0463 -0.0463,-0.0463 v 0.0926 0.0926 z m -0.0695,-0.20836 0.0463,-0.0463 -0.0463,-0.0463 -0.0464,-0.0463 v 0.0926 0.0926 z m -126.7525139,-0.0694 0.0463,-0.0463 -0.0463,-0.0463 -0.0464,-0.0463 v 0.0926 0.0926 z m 126.6829839,-0.1389 0.0464,-0.0463 -0.0464,-0.0463 -0.0463,-0.0463 v 0.0926 0.0926 z m -126.6134539,-0.0694 0.0464,-0.0463 -0.0464,-0.0463 -0.0463,-0.0463 v 0.0926 0.0926 z m 126.5395839,-0.13457 0.042,-0.042 -0.0365,-0.0912 -0.0365,-0.0912 -0.006,0.13312 -0.005,0.13312 z m -126.4700539,-0.0738 0.0463,-0.0463 -0.0463,-0.0463 -0.0464,-0.0463 v 0.0926 0.0926 z m 0.12747,-0.39357 0.0937,-0.24308 -2.6e-4,-0.0695 -2.6e-4,-0.0694 -0.0955,0.20836 -0.0955,0.20836 0.002,0.10418 0.002,0.10418 z m 126.2773939,0.18521 0.0464,-0.0463 -0.0464,-0.0463 -0.0463,-0.0463 v 0.0926 0.0926 z m -0.0695,-0.20836 0.0463,-0.0463 -0.0463,-0.0463 -0.0464,-0.0463 v 0.0926 0.0926 z m -0.0811,-0.1852 h 0.0348 v -0.0347 -0.0347 h -0.0348 -0.0348 v 0.0347 0.0347 z m -125.9529239,-0.27782 0.0674,-0.10418 v -0.0694 -0.0695 l -0.0674,0.10418 -0.0674,0.10418 v 0.0695 0.0694 z m 125.8833939,0.0694 h 0.0348 v -0.0347 -0.0347 h -0.0348 -0.0348 v 0.0347 0.0347 z m -0.0546,-0.16543 0.0325,-0.0325 -0.0738,-0.12675 -0.0738,-0.12675 -0.002,0.0464 -0.002,0.0464 0.0434,0.11286 0.0434,0.11285 z m -125.6897739,-0.25129 0.0674,-0.10418 v -0.0695 -0.0694 l -0.0674,0.10418 -0.0674,0.10418 v 0.0694 0.0695 z M 134.39562,203.6099 h 0.0348 v -0.0347 -0.0347 h -0.0348 -0.0348 v 0.0347 0.0347 z m -0.0579,-0.16205 0.0463,-0.0463 -0.0463,-0.0463 -0.0464,-0.0463 v 0.0926 0.0926 z m -125.3039839,-0.18521 0.0994,-0.17363 v -0.0694 -0.0695 l -0.0994,0.17363 -0.0994,0.17363 v 0.0694 0.0695 z m 125.2228639,0 h 0.0348 v -0.0347 -0.0347 h -0.0348 -0.0348 v 0.0347 0.0347 z m -0.0546,-0.16543 0.0326,-0.0325 -0.0738,-0.12675 -0.0738,-0.12675 -0.002,0.0464 -0.002,0.0464 0.0434,0.11285 0.0433,0.11286 z m -124.9944739,-0.25129 0.0674,-0.10418 v -0.0694 -0.0695 l -0.0674,0.10418 -0.0674,0.10418 v 0.0694 0.0694 z m 124.8554139,-0.096 0.0326,-0.0325 -0.0738,-0.12675 -0.0738,-0.12675 -0.002,0.0464 -0.002,0.0464 0.0434,0.11285 0.0433,0.11286 z M 9.3118161,202.5681 h 0.0348 v -0.0347 -0.0347 h -0.0348 -0.0348 v 0.0347 0.0347 z m 0.0695,-0.13891 h 0.0348 v -0.0347 -0.0347 h -0.0348 -0.0348 v 0.0347 0.0347 z m 124.5299039,0 h 0.0348 l -0.17616,-0.34726 -0.17617,-0.34727 h -0.0348 -0.0348 l 0.17617,0.34727 0.17616,0.34726 z M 9.4508761,202.29029 h 0.0348 v -0.0347 -0.0347 h -0.0348 -0.0348 v 0.0347 0.0347 z m 0.0695,-0.13891 h 0.0348 v -0.0347 -0.0347 h -0.0348 -0.0348 v 0.0347 0.0347 z m 0.068,-0.13891 h 0.0348 l 0.27967,-0.55562 0.2796699,-0.55563 h -0.0348 -0.0348 l -0.2796699,0.55563 -0.27967,0.55562 z M 133.49173,201.66521 h 0.0348 v -0.0347 -0.0347 h -0.0348 -0.0348 v 0.0347 0.0347 z m -0.0695,-0.13891 h 0.0348 v -0.0347 -0.0347 h -0.0348 -0.0348 v 0.0347 0.0347 z m -0.0695,-0.1389 h 0.0348 v -0.0347 -0.0347 h -0.0348 -0.0348 v 0.0347 0.0347 z m -0.0695,-0.13891 h 0.0348 v -0.0347 -0.0347 h -0.0348 -0.0348 v 0.0347 0.0347 z m -0.0695,-0.13891 h 0.0348 v -0.0347 -0.0347 h -0.0348 -0.0348 v 0.0347 0.0347 z m -0.0646,-0.1389 h 0.0348 l -0.0744,-0.13891 -0.0744,-0.13891 h -0.0348 -0.0348 l 0.0744,0.13891 0.0744,0.13891 z m -122.862484,-0.24309 0.11322,-0.13891 0.0683,-0.1389 0.0683,-0.13891 -0.11322,0.13891 -0.11322,0.1389 -0.0683,0.13891 -0.0683,0.13891 z M 132.9396,200.62341 h 0.0307 v -0.0306 -0.0306 l -0.0803,-0.0496 -0.0803,-0.0496 0.0496,0.0802 0.0496,0.0802 z m -0.13828,-0.20836 h 0.0348 l -0.0744,-0.1389 -0.0744,-0.13891 h -0.0348 -0.0348 l 0.0744,0.13891 0.0744,0.1389 z m -122.146914,-0.27322 0.13742,-0.16905 0.11753,-0.21294 0.11753,-0.21295 -0.13742,0.16904 -0.13742,0.16905 -0.11753,0.21295 -0.11753,0.21294 z m 121.937544,-0.074 h 0.0307 v -0.0306 -0.0306 l -0.0803,-0.0496 -0.0803,-0.0496 0.0496,0.0802 0.0496,0.0802 z m -0.13906,-0.20836 h 0.0307 v -0.0306 -0.0306 l -0.0803,-0.0496 -0.0803,-0.0496 0.0496,0.0802 0.0496,0.0802 z m -0.13827,-0.20836 h 0.0348 l -0.0744,-0.13891 -0.0744,-0.1389 h -0.0348 -0.0348 l 0.0744,0.1389 0.0744,0.13891 z M 11.041546,199.51216 h 0.0263 l 0.0954,-0.12154 0.0954,-0.12154 -0.12168,0.0953 -0.12167,0.0953 v 0.0262 0.0262 z m 0.20158,-0.27781 h 0.0241 l 0.16542,-0.22572 0.16543,-0.22573 -0.12138,0.0985 -0.12138,0.0985 -0.0682,0.12726 -0.0682,0.12725 z m 120.792594,0 h 0.0307 v -0.0306 -0.0306 l -0.0803,-0.0496 -0.0803,-0.0496 0.0496,0.0802 0.0496,0.0802 z m -0.13238,-0.20836 h 0.024 v -0.024 -0.024 l -0.15644,-0.13231 -0.15645,-0.1323 0.13246,0.15626 0.13245,0.15627 z M 11.597786,198.74818 h 0.0263 l 0.0954,-0.12155 0.0954,-0.12154 -0.12167,0.0953 -0.12168,0.0953 v 0.0262 0.0262 z m 120.025174,-0.0694 h 0.0263 v -0.0262 -0.0262 l -0.12168,-0.0953 -0.12168,-0.0953 0.0954,0.12154 0.0954,0.12154 z m -119.620994,-0.4487 0.2301,-0.27506 0.31124,-0.35001 0.31125,-0.35002 -0.23159,0.20836 -0.2316,0.20836 -0.30974,0.41672 -0.30975,0.41671 z m 119.412404,0.17088 h 0.0263 v -0.0262 -0.0262 l -0.12168,-0.0953 -0.12168,-0.0953 0.0954,0.12155 0.0954,0.12154 z m -0.20633,-0.27781 h 0.024 v -0.024 -0.024 l -0.15644,-0.1323 -0.15644,-0.13231 0.13245,0.15627 0.13245,0.15627 z m -0.25994,-0.34726 h 0.0348 l -0.30707,-0.31254 -0.30707,-0.31254 h -0.0348 -0.0348 l 0.30707,0.31254 0.30707,0.31254 z m -117.255914,-1.38595 0.90389,-0.86109 0.24335,-0.24356 0.24335,-0.24356 -0.62576,0.56317 -0.62577,0.56317 -0.52147,0.54148 -0.52147,0.54148 z M 130.2397,197.0119 h 0.0189 v -0.0189 -0.0189 l -0.60839,-0.58882 -0.60838,-0.58881 0.58947,0.60771 0.58946,0.60772 z m -1.30796,-1.25015 h 0.0348 l -0.30707,-0.31254 -0.30707,-0.31254 h -0.0348 -0.0348 l 0.30707,0.31254 0.30707,0.31254 z m -0.71574,-0.62508 h 0.0263 v -0.0262 -0.0262 l -0.12167,-0.0953 -0.12168,-0.0953 0.0954,0.12154 0.0954,0.12154 z m -113.072204,-0.0694 h 0.0263 l 0.0954,-0.12154 0.0954,-0.12155 -0.12167,0.0953 -0.12168,0.0953 v 0.0262 0.0262 z m 0.66904,-0.5209 0.41718,-0.32066 v -0.0347 -0.0347 l -0.41718,0.32066 -0.41717,0.32066 v 0.0347 0.0347 z m 112.055524,0.31254 h 0.0263 v -0.0262 -0.0262 l -0.12168,-0.0953 -0.12168,-0.0953 0.0954,0.12154 0.0954,0.12155 z m -0.27812,-0.20836 h 0.0263 v -0.0262 -0.0262 l -0.12168,-0.0953 -0.12168,-0.0953 0.0954,0.12154 0.0954,0.12155 z m -0.27812,-0.20836 h 0.0263 v -0.0262 -0.0262 l -0.12168,-0.0953 -0.12168,-0.0953 0.0954,0.12154 0.0954,0.12155 z m -0.26074,-0.21086 0.0259,0.002 -0.0897,-0.10797 -0.0897,-0.10797 -0.14477,-0.0718 -0.14478,-0.0718 0.20859,0.1773 0.20858,0.17731 z m -110.725274,-0.067 h 0.0348 l 0.043,-0.0694 0.043,-0.0694 h -0.0348 -0.0348 l -0.043,0.0694 -0.043,0.0694 z m 0.3473,-0.24387 0.18238,-0.11937 v -0.0292 -0.0292 l -0.13519,0.0723 -0.13518,0.0723 -0.0472,0.0763 -0.0472,0.0763 z m 109.869474,-0.0339 h 0.0307 v -0.0306 -0.0306 l -0.0803,-0.0496 -0.0803,-0.0496 0.0496,0.0802 0.0496,0.0802 z M 16.951876,193.74755 h 0.0348 l 0.043,-0.0694 0.043,-0.0694 h -0.0348 -0.0348 l -0.043,0.0694 -0.043,0.0694 z m 109.382424,0 h 0.0307 v -0.0306 -0.0306 l -0.0803,-0.0496 -0.0803,-0.0496 0.0496,0.0802 0.0496,0.0802 z m -109.021984,-0.24472 0.21319,-0.1174 0.16923,-0.13727 0.16923,-0.13727 -0.21318,0.1174 -0.21318,0.1174 -0.16923,0.13727 -0.16924,0.13727 z m 108.822574,0.10582 h 0.0215 v -0.0323 -0.0323 l -0.15644,-0.0757 -0.15644,-0.0757 0.13497,0.10801 0.13496,0.10801 z m -0.35683,-0.20836 h 0.0307 v -0.0306 -0.0306 l -0.0803,-0.0496 -0.0803,-0.0496 0.0496,0.0802 0.0496,0.0802 z m -0.20859,-0.13891 h 0.0307 v -0.0306 -0.0306 l -0.0803,-0.0496 -0.0803,-0.0496 0.0496,0.0802 0.0496,0.0802 z m -107.462154,-0.24308 0.20859,-0.10775 v -0.0347 -0.0347 l -0.20859,0.10775 -0.20859,0.10775 v 0.0347 0.0347 z m 107.249464,0.10418 h 0.0348 v -0.0347 -0.0347 h -0.0348 -0.0348 v 0.0347 0.0347 z m -0.12577,-0.0694 h 0.0215 v -0.0323 -0.0323 l -0.15644,-0.0757 -0.15644,-0.0757 0.13496,0.10801 0.13497,0.10801 z M 18.420206,192.84467 h 0.0348 v -0.0347 -0.0347 h -0.0348 -0.0348 v 0.0347 0.0347 z m 106.449864,0 h 0.0348 v -0.0347 -0.0347 h -0.0348 -0.0348 v 0.0347 0.0347 z m -106.310804,-0.0695 h 0.0348 v -0.0347 -0.0347 h -0.0348 -0.0348 v 0.0347 0.0347 z m 106.171744,0 h 0.0348 v -0.0347 -0.0347 h -0.0348 -0.0348 v 0.0347 0.0347 z m -106.032694,-0.0694 h 0.0348 v -0.0347 -0.0347 h -0.0348 -0.0348 v 0.0347 0.0347 z m 105.893634,0 h 0.0348 v -0.0347 -0.0347 h -0.0348 -0.0348 v 0.0347 0.0347 z m -105.754574,-0.0694 h 0.0348 v -0.0347 -0.0347 h -0.0348 -0.0348 v 0.0347 0.0347 z m 105.615514,0 h 0.0348 v -0.0347 -0.0347 h -0.0348 -0.0348 v 0.0347 0.0347 z m -105.061504,-0.29227 0.44971,-0.22152 -0.0255,-0.0255 -0.0255,-0.0255 -0.42422,0.2139 -0.42421,0.21391 v 0.0331 0.0331 z m 104.922444,0.22281 h 0.0348 v -0.0347 -0.0347 h -0.0348 -0.0348 v 0.0347 0.0347 z m -0.13906,-0.0694 h 0.0348 v -0.0347 -0.0347 h -0.0348 -0.0348 v 0.0347 0.0347 z m -0.13905,-0.0694 h 0.0348 v -0.0347 -0.0347 h -0.0348 -0.0348 v 0.0347 0.0347 z m -0.12168,-0.0724 0.0174,0.003 v -0.0329 -0.0329 l -0.20514,-0.10597 -0.20513,-0.10596 -0.0556,0.003 -0.0556,0.003 0.24335,0.13308 0.24335,0.13309 z m -103.964184,-0.2749 h 0.0348 v -0.0347 -0.0347 h -0.0348 -0.0348 v 0.0347 0.0347 z m 103.390564,0 h 0.0348 v -0.0347 -0.0347 h -0.0348 -0.0348 v 0.0347 0.0347 z M 20.088916,192.0091 h 0.0695 l 0.10429,-0.0673 0.1043,-0.0673 h -0.0695 -0.0695 l -0.1043,0.0673 -0.10429,0.0673 z m 103.077674,0.002 h 0.0927 l -0.0464,-0.0463 -0.0464,-0.0463 -0.0464,0.0463 -0.0464,0.0463 z m -0.17382,-0.0695 h 0.0348 v -0.0347 -0.0347 h -0.0348 -0.0348 v 0.0347 0.0347 z M 20.436566,191.8702 h 0.0695 l 0.10429,-0.0673 0.10429,-0.0673 h -0.0695 -0.0695 l -0.10429,0.0673 -0.10429,0.0673 z m 102.417144,0 h 0.0695 l -0.10429,-0.0673 -0.1043,-0.0673 h -0.0695 -0.0695 l 0.1043,0.0673 0.10429,0.0673 z M 20.784206,191.72849 h 0.0695 l 0.17383,-0.0992 0.17382,-0.0993 h -0.0695 -0.0695 l -0.17382,0.0993 -0.17383,0.0992 z m 101.721854,0.003 h 0.0695 l -0.10429,-0.0673 -0.10429,-0.0673 h -0.0695 -0.0695 l 0.10429,0.0673 0.10429,0.0673 z m -0.34764,-0.13678 h 0.0348 v -0.0347 -0.0347 h -0.0348 -0.0348 v 0.0347 0.0347 z m -100.852734,-0.0695 h 0.0927 l -0.0464,-0.0463 -0.0463,-0.0463 -0.0464,0.0463 -0.0464,0.0463 z m 100.678904,0 h 0.0927 l -0.0463,-0.0463 -0.0464,-0.0463 -0.0464,0.0463 -0.0463,0.0463 z m -100.505084,-0.0804 0.0695,3.7e-4 0.24335,-0.0936 0.24336,-0.0936 -0.1043,-0.002 -0.10429,-0.002 -0.20859,0.0954 -0.20859,0.0954 z M 121.776,191.4556 h 0.0927 l -0.0463,-0.0463 -0.0464,-0.0463 -0.0464,0.0463 -0.0463,0.0463 z m -0.20859,-0.0695 h 0.0927 l -0.0463,-0.0463 -0.0464,-0.0463 -0.0464,0.0463 -0.0463,0.0463 z m -0.20858,-0.0695 h 0.0927 l -0.0464,-0.0463 -0.0464,-0.0463 -0.0464,0.0463 -0.0464,0.0463 z m -99.218794,-0.0694 h 0.0927 l -0.0464,-0.0463 -0.0464,-0.0463 -0.0463,0.0463 -0.0464,0.0463 z m 99.010204,0 h 0.0927 l -0.0464,-0.0463 -0.0464,-0.0463 -0.0464,0.0463 -0.0464,0.0463 z m -98.801614,-0.0695 h 0.0927 l -0.0463,-0.0463 -0.0464,-0.0463 -0.0463,0.0463 -0.0464,0.0463 z m 98.593024,0 h 0.0927 l -0.0464,-0.0463 -0.0464,-0.0463 -0.0464,0.0463 -0.0464,0.0463 z m -98.419194,-0.0759 0.0695,0.004 0.41718,-0.13415 0.41718,-0.13415 -0.13906,0.002 -0.13906,0.002 -0.34765,0.12814 -0.34765,0.12814 z m 98.210604,0.006 h 0.0927 l -0.0464,-0.0463 -0.0464,-0.0463 -0.0463,0.0463 -0.0464,0.0463 z m -0.24915,-0.0749 0.13327,0.005 -0.042,-0.042 -0.042,-0.042 -0.0913,0.0365 -0.0913,0.0365 z m -0.23756,-0.064 h 0.0927 l -0.0464,-0.0463 -0.0464,-0.0463 -0.0463,0.0463 -0.0464,0.0463 z m -0.24915,-0.0749 0.13327,0.005 -0.042,-0.042 -0.042,-0.042 -0.0913,0.0365 -0.0913,0.0365 z m -96.437594,-0.0695 0.13326,0.005 -0.042,-0.042 -0.042,-0.042 -0.0913,0.0365 -0.0913,0.0365 z m 96.159474,0 0.13327,0.005 -0.042,-0.042 -0.042,-0.042 -0.0912,0.0365 -0.0913,0.0365 z m -95.840804,-0.0749 h 0.17383 l -0.0869,-0.035 -0.0869,-0.035 -0.0869,0.035 -0.0869,0.035 z m 95.533714,0 h 0.17383 l -0.0869,-0.035 -0.0869,-0.035 -0.0869,0.035 -0.0869,0.035 z m -95.226624,-0.064 0.13327,0.005 -0.042,-0.042 -0.042,-0.042 -0.0913,0.0365 -0.0913,0.0365 z m 94.907954,0 0.13326,0.005 -0.042,-0.042 -0.042,-0.042 -0.0913,0.0365 -0.0913,0.0365 z m -94.589274,-0.0749 h 0.17382 l -0.0869,-0.035 -0.0869,-0.035 -0.0869,0.035 -0.0869,0.035 z m 94.282184,0 h 0.17382 l -0.0869,-0.035 -0.0869,-0.035 -0.0869,0.035 -0.0869,0.035 z m -93.934534,-0.0694 h 0.17382 l -0.0869,-0.035 -0.0869,-0.035 -0.0869,0.035 -0.0869,0.035 z m 93.615854,0.005 0.13327,0.005 -0.042,-0.042 -0.042,-0.042 -0.0913,0.0365 -0.0913,0.0365 z m -93.198674,-0.0749 h 0.17382 l -0.0869,-0.035 -0.0869,-0.035 -0.0869,0.035 -0.0869,0.035 z m 92.752524,0 h 0.17383 l -0.0869,-0.035 -0.0869,-0.035 -0.0869,0.035 -0.0869,0.035 z m -92.300584,-0.076 0.27812,0.001 -0.12087,-0.0316 -0.12087,-0.0316 -0.15725,0.0302 -0.15725,0.0302 z m 91.848644,0 0.27812,0.001 -0.12087,-0.0316 -0.12086,-0.0316 -0.15726,0.0302 -0.15725,0.0302 z m -91.257644,-0.10077 0.31288,-0.0404 44.63803,-0.0429 44.638024,-0.0429 -44.638024,0.006 -44.63803,0.006 -0.31288,0.0769 -0.31288,0.0769 z m 90.736174,0.0327 h 0.24335 l -0.12168,-0.0318 -0.12167,-0.0318 -0.12168,0.0318 -0.12168,0.0318 z m -0.66053,-0.0732 0.34765,9.5e-4 -0.15549,-0.03 -0.15549,-0.03 -0.19216,0.029 -0.19216,0.029 z"
       id="path4" /></g></svg>
